<?xml version="1.0" encoding="utf-8"?>
<!-- Generator: Adobe Illustrator 25.0.0, SVG Export Plug-In . SVG Version: 6.00 Build 0)  -->
<!DOCTYPE svg PUBLIC "-//W3C//DTD SVG 1.1//EN" "http://www.w3.org/Graphics/SVG/1.1/DTD/svg11.dtd" [
	<!ENTITY st0 "fill:#7B4D29;">
	<!ENTITY st1 "opacity:0.6;">
	<!ENTITY st2 "fill:#56331B;">
	<!ENTITY st3 "fill:#4E8709;">
	<!ENTITY st4 "opacity:0.4;fill:#4E8709;enable-background:new    ;">
	<!ENTITY st5 "fill:#66AB18;">
	<!ENTITY st6 "opacity:0.6;fill:#56331B;enable-background:new    ;">
]>
<svg version="1.1" id="Layer_1" xmlns="http://www.w3.org/2000/svg" xmlns:xlink="http://www.w3.org/1999/xlink" x="0px" y="0px"
	 viewBox="0 0 219.998 330.7" style="enable-background:new 0 0 219.998 330.7;" xml:space="preserve">
<g>
	<g>
		<path style="&st0;" d="M168.472,329.666V144.644c0-9.802-8.048-17.75-17.978-17.75h-10.246c-9.93,0-17.978,7.946-17.978,17.75
			v185.022H168.472z"/>
		<path style="&st0;" d="M155.198,214.15h-73.03V92.874c0-6.098-5.006-11.042-11.182-11.042c-6.178,0-11.184,4.942-11.184,11.042
			v132.318c0,5.138,3.564,9.448,8.384,10.678c0.896,0.228,1.83,0.364,2.8,0.364h84.212V214.15z"/>
	</g>
	<g style="&st1;">
		<path style="&st2;" d="M168.472,179.644v-35c0-9.802-8.048-17.75-17.978-17.75h-10.246c-9.93,0-17.978,7.946-17.978,17.75v35
			H168.472z"/>
		<path style="&st2;" d="M82.168,201.924V92.874c0-6.098-5.006-11.042-11.182-11.042c-6.178,0-11.184,4.942-11.184,11.042v109.05
			H82.168z"/>
	</g>
	<g>
		<g>
			<path style="&st3;" d="M220,126.41c0,18.584-15.26,33.65-34.082,33.65H91.62c-18.824,0-34.084-15.066-34.084-33.65V33.314
				c0-18.582,15.26-33.648,34.084-33.648h94.298C204.74-0.334,220,14.732,220,33.314V126.41z"/>
			<path style="&st4;" d="M109.514,40.606c0,3.716-3.052,6.728-6.818,6.728H78.27c-3.764,0-6.818-3.014-6.818-6.728l0,0
				c0-3.718,3.052-6.73,6.818-6.73h24.426C106.462,33.876,109.514,36.888,109.514,40.606L109.514,40.606z"/>
			<path style="&st5;" d="M185.918-0.334H91.62c-18.824,0-34.084,15.066-34.084,33.648v8.426h55.544
				c18.822,0,34.082,15.066,34.082,33.65v51.02h38.754c18.822,0,34.082-15.066,34.082-33.648V33.314
				C220,14.732,204.74-0.334,185.918-0.334z"/>
			<path style="&st4;" d="M140.188,72.01c0,3.716-3.052,6.73-6.816,6.73h-24.426c-3.764,0-6.816-3.014-6.816-6.73l0,0
				c0-3.718,3.052-6.73,6.816-6.73h24.426C137.136,65.28,140.188,68.292,140.188,72.01L140.188,72.01z"/>
			<path style="&st3;" d="M187.338,103.416c0,3.714-3.052,6.73-6.818,6.73h-24.426c-3.764,0-6.816-3.014-6.816-6.73l0,0
				c0-3.718,3.052-6.73,6.816-6.73h24.426C184.284,96.686,187.338,99.698,187.338,103.416L187.338,103.416z"/>
			<path style="&st4;" d="M148.994,22.658c0,3.716-2.232,6.73-4.986,6.73h-17.862c-2.754,0-4.988-3.014-4.988-6.73l0,0
				c0-3.716,2.232-6.73,4.988-6.73h17.862C146.76,15.93,148.994,18.942,148.994,22.658L148.994,22.658z"/>
			<path style="&st4;" d="M201.254,54.064c0,3.716-2.232,6.73-4.986,6.73h-17.862c-2.754,0-4.986-3.014-4.986-6.73l0,0
				c0-3.716,2.232-6.73,4.986-6.73h17.862C199.022,47.334,201.254,50.348,201.254,54.064L201.254,54.064z"/>
		</g>
		<g>
			<path style="&st3;" d="M128.714,159.956c0,14.722-12.09,26.658-27.004,26.658H27.004C12.09,186.614,0,174.678,0,159.956V86.2
				c0-14.724,12.09-26.658,27.004-26.658h74.708c14.914,0,27.004,11.936,27.004,26.658v73.756H128.714z"/>
			<path style="&st5;" d="M101.71,59.54H27.004C12.09,59.54,0,71.476,0,86.2v47.096c0,14.724,12.09,26.66,27.004,26.66h74.708
				c14.914,0,27.004-11.936,27.004-26.66V86.2C128.714,71.476,116.624,59.54,101.71,59.54z"/>
			<path style="&st4;" d="M41.18,91.976c0,2.944-2.418,5.332-5.402,5.332H16.426c-2.982,0-5.402-2.388-5.402-5.332l0,0
				c0-2.946,2.418-5.332,5.402-5.332h19.352C38.76,86.644,41.18,89.03,41.18,91.976L41.18,91.976z"/>
			<path style="&st4;" d="M65.482,116.856c0,2.944-2.42,5.332-5.4,5.332H40.73c-2.982,0-5.402-2.388-5.402-5.332l0,0
				c0-2.946,2.42-5.332,5.402-5.332h19.352C63.064,111.524,65.482,113.912,65.482,116.856L65.482,116.856z"/>
			<path style="&st3;" d="M102.836,141.738c0,2.942-2.418,5.33-5.4,5.33H78.084c-2.982,0-5.402-2.386-5.402-5.33l0,0
				c0-2.946,2.418-5.334,5.402-5.334h19.352C100.418,136.406,102.836,138.792,102.836,141.738L102.836,141.738z"/>
			<path style="&st4;" d="M72.458,77.756c0,2.944-1.768,5.332-3.95,5.332H54.356c-2.182,0-3.95-2.388-3.95-5.332l0,0
				c0-2.944,1.768-5.332,3.95-5.332h14.152C70.688,72.424,72.458,74.812,72.458,77.756L72.458,77.756z"/>
			<path style="&st4;" d="M113.864,102.638c0,2.944-1.768,5.332-3.95,5.332H95.76c-2.182,0-3.95-2.388-3.95-5.332l0,0
				c0-2.946,1.768-5.332,3.95-5.332h14.152C112.094,97.306,113.864,99.694,113.864,102.638L113.864,102.638z"/>
		</g>
	</g>
	<path style="&st6;" d="M161.586,216.682c0,3.354-2.756,6.076-6.154,6.076l0,0c-3.4,0-6.154-2.72-6.154-6.076v-18.548
		c0-3.354,2.756-6.076,6.154-6.076l0,0c3.398,0,6.154,2.72,6.154,6.076V216.682z"/>
	<path style="&st6;" d="M161.586,255.408c0,3.354-2.756,6.074-6.154,6.074l0,0c-3.4,0-6.154-2.72-6.154-6.074V236.86
		c0-3.356,2.756-6.078,6.154-6.078l0,0c3.398,0,6.154,2.72,6.154,6.078V255.408z"/>
	<path style="&st6;" d="M141.23,310.76c0,3.354-2.756,6.074-6.154,6.074l0,0c-3.398,0-6.154-2.72-6.154-6.074v-18.548
		c0-3.356,2.756-6.076,6.154-6.076l0,0c3.398,0,6.154,2.72,6.154,6.076V310.76z"/>
</g>
</svg>
