<?xml version="1.0" encoding="utf-8"?>
<!-- Generator: Adobe Illustrator 25.0.0, SVG Export Plug-In . SVG Version: 6.00 Build 0)  -->
<!DOCTYPE svg PUBLIC "-//W3C//DTD SVG 1.1//EN" "http://www.w3.org/Graphics/SVG/1.1/DTD/svg11.dtd" [
	<!ENTITY st0 "fill:#6EB4E4;">
	<!ENTITY st1 "fill:#399DCE;">
]>
<svg version="1.1" id="Layer_1" xmlns="http://www.w3.org/2000/svg" xmlns:xlink="http://www.w3.org/1999/xlink" x="0px" y="0px"
	 viewBox="0 0 1000 180" style="enable-background:new 0 0 1000 180;" xml:space="preserve">
<g>
	<rect style="&st0;" width="1000" height="180"/>
	<rect style="&st1;" width="1000" height="29.638"/>
</g>
<g>
	<path style="&st1;" d="M493.214,112.487c0,3.191-2.154,5.776-4.813,5.776h-14.633c-2.658,0-4.814-2.585-4.814-5.776l0,0
		c0-3.191,2.156-5.777,4.814-5.777h14.633C491.06,106.71,493.214,109.297,493.214,112.487L493.214,112.487z"/>
	<path style="&st1;" d="M601.094,100.935c0,3.19-2.156,5.776-4.814,5.776h-14.633c-2.658,0-4.813-2.586-4.813-5.776l0,0
		c0-3.191,2.154-5.778,4.813-5.778h14.633C598.938,95.157,601.094,97.744,601.094,100.935L601.094,100.935z"/>
	<path style="&st1;" d="M529.982,98.523c0,3.19-2.155,5.775-4.814,5.775h-14.633c-2.658,0-4.814-2.585-4.814-5.775l0,0
		c0-3.191,2.155-5.778,4.814-5.778h14.633C527.827,92.745,529.982,95.331,529.982,98.523L529.982,98.523z"/>
	<path style="&st1;" d="M454.681,100.935c0,3.19-2.155,5.776-4.814,5.776h-26.469c-2.658,0-4.814-2.586-4.814-5.776l0,0
		c0-3.191,2.155-5.778,4.814-5.778h26.469C452.526,95.157,454.681,97.744,454.681,100.935L454.681,100.935z"/>
	<path style="&st1;" d="M562.587,114.145c0,3.19-2.156,5.775-4.814,5.775h-26.469c-2.658,0-4.813-2.585-4.813-5.775l0,0
		c0-3.191,2.154-5.778,4.813-5.778h26.469C560.432,108.367,562.587,110.953,562.587,114.145L562.587,114.145z"/>
</g>
<g>
	<path style="&st1;" d="M88.075,90.711c0,3.191-2.154,5.776-4.813,5.776H68.629c-2.658,0-4.814-2.585-4.814-5.776l0,0
		c0-3.191,2.156-5.777,4.814-5.777h14.633C85.921,84.934,88.075,87.52,88.075,90.711L88.075,90.711z"/>
	<path style="&st1;" d="M195.955,79.158c0,3.19-2.156,5.776-4.814,5.776h-14.633c-2.658,0-4.813-2.586-4.813-5.776l0,0
		c0-3.191,2.154-5.778,4.813-5.778h14.633C193.799,73.381,195.955,75.968,195.955,79.158L195.955,79.158z"/>
	<path style="&st1;" d="M124.843,76.746c0,3.19-2.155,5.775-4.814,5.775h-14.633c-2.658,0-4.814-2.585-4.814-5.775l0,0
		c0-3.192,2.155-5.778,4.814-5.778h14.633C122.688,70.969,124.843,73.555,124.843,76.746L124.843,76.746z"/>
	<path style="&st1;" d="M49.542,79.158c0,3.19-2.155,5.776-4.814,5.776H18.26c-2.658,0-4.814-2.586-4.814-5.776l0,0
		c0-3.191,2.155-5.778,4.814-5.778h26.469C47.387,73.381,49.542,75.968,49.542,79.158L49.542,79.158z"/>
	<path style="&st1;" d="M157.448,92.368c0,3.19-2.156,5.775-4.814,5.775h-26.469c-2.658,0-4.813-2.585-4.813-5.775l0,0
		c0-3.192,2.154-5.778,4.813-5.778h26.469C155.292,86.591,157.448,89.177,157.448,92.368L157.448,92.368z"/>
</g>
<g>
	<path style="&st1;" d="M232.077,146.49c0,3.191-2.154,5.776-4.813,5.776h-14.633c-2.658,0-4.814-2.585-4.814-5.776l0,0
		c0-3.191,2.156-5.777,4.814-5.777h14.633C229.923,140.713,232.077,143.299,232.077,146.49L232.077,146.49z"/>
	<path style="&st1;" d="M339.957,134.937c0,3.19-2.156,5.776-4.814,5.776H320.51c-2.658,0-4.813-2.586-4.813-5.776l0,0
		c0-3.191,2.154-5.778,4.813-5.778h14.633C337.801,129.159,339.957,131.746,339.957,134.937L339.957,134.937z"/>
	<path style="&st1;" d="M268.845,132.525c0,3.19-2.155,5.775-4.814,5.775h-14.633c-2.658,0-4.814-2.585-4.814-5.775l0,0
		c0-3.192,2.155-5.778,4.814-5.778h14.633C266.69,126.747,268.845,129.334,268.845,132.525L268.845,132.525z"/>
	<path style="&st1;" d="M193.544,134.937c0,3.19-2.155,5.776-4.814,5.776h-26.469c-2.658,0-4.814-2.586-4.814-5.776l0,0
		c0-3.191,2.155-5.778,4.814-5.778h26.469C191.389,129.159,193.544,131.746,193.544,134.937L193.544,134.937z"/>
	<path style="&st1;" d="M301.451,148.147c0,3.19-2.156,5.775-4.814,5.775h-26.469c-2.658,0-4.813-2.585-4.813-5.775l0,0
		c0-3.192,2.154-5.778,4.813-5.778h26.469C299.295,142.369,301.451,144.956,301.451,148.147L301.451,148.147z"/>
</g>
<g>
	<path style="&st1;" d="M318.769,70.85c0,3.191-2.154,5.776-4.813,5.776h-14.633c-2.658,0-4.814-2.585-4.814-5.776l0,0
		c0-3.191,2.156-5.777,4.814-5.777h14.633C316.615,65.073,318.769,67.659,318.769,70.85L318.769,70.85z"/>
	<path style="&st1;" d="M426.649,59.297c0,3.19-2.156,5.776-4.814,5.776h-14.633c-2.658,0-4.813-2.586-4.813-5.776l0,0
		c0-3.191,2.154-5.778,4.813-5.778h14.633C424.493,53.52,426.649,56.107,426.649,59.297L426.649,59.297z"/>
	<path style="&st1;" d="M355.537,56.885c0,3.19-2.155,5.775-4.814,5.775h-14.633c-2.658,0-4.814-2.585-4.814-5.775l0,0
		c0-3.192,2.155-5.778,4.814-5.778h14.633C353.382,51.108,355.537,53.694,355.537,56.885L355.537,56.885z"/>
	<path style="&st1;" d="M280.236,59.297c0,3.19-2.155,5.776-4.814,5.776h-26.469c-2.658,0-4.814-2.586-4.814-5.776l0,0
		c0-3.191,2.155-5.778,4.814-5.778h26.469C278.081,53.52,280.236,56.107,280.236,59.297L280.236,59.297z"/>
	<path style="&st1;" d="M388.142,72.507c0,3.19-2.156,5.775-4.814,5.775h-26.469c-2.658,0-4.813-2.585-4.813-5.775l0,0
		c0-3.191,2.154-5.778,4.813-5.778h26.469C385.986,66.73,388.142,69.316,388.142,72.507L388.142,72.507z"/>
</g>
<g>
	<path style="&st1;" d="M682.379,148.146c0,3.191-2.154,5.776-4.813,5.776h-14.633c-2.658,0-4.814-2.585-4.814-5.776l0,0
		c0-3.191,2.156-5.777,4.814-5.777h14.633C680.225,142.369,682.379,144.956,682.379,148.146L682.379,148.146z"/>
	<path style="&st1;" d="M790.259,136.594c0,3.19-2.156,5.776-4.814,5.776h-14.633c-2.658,0-4.813-2.586-4.813-5.776l0,0
		c0-3.191,2.154-5.778,4.813-5.778h14.633C788.103,130.816,790.259,133.403,790.259,136.594L790.259,136.594z"/>
	<path style="&st1;" d="M719.147,134.182c0,3.19-2.155,5.775-4.814,5.775H699.7c-2.658,0-4.814-2.585-4.814-5.775l0,0
		c0-3.191,2.155-5.778,4.814-5.778h14.633C716.992,128.404,719.147,130.99,719.147,134.182L719.147,134.182z"/>
	<path style="&st1;" d="M643.846,136.594c0,3.19-2.155,5.776-4.814,5.776h-26.469c-2.658,0-4.814-2.586-4.814-5.776l0,0
		c0-3.191,2.155-5.778,4.814-5.778h26.469C641.69,130.816,643.846,133.403,643.846,136.594L643.846,136.594z"/>
	<path style="&st1;" d="M751.752,149.804c0,3.19-2.156,5.775-4.814,5.775h-26.469c-2.658,0-4.813-2.585-4.813-5.775l0,0
		c0-3.191,2.154-5.778,4.813-5.778h26.469C749.596,144.026,751.752,146.612,751.752,149.804L751.752,149.804z"/>
</g>
<g>
	<path style="&st1;" d="M728.253,68.437c0,3.191-2.154,5.776-4.813,5.776h-14.633c-2.658,0-4.814-2.585-4.814-5.776l0,0
		c0-3.191,2.156-5.777,4.814-5.777h14.633C726.098,62.66,728.253,65.246,728.253,68.437L728.253,68.437z"/>
	<path style="&st1;" d="M836.132,56.884c0,3.19-2.156,5.776-4.814,5.776h-14.633c-2.658,0-4.813-2.586-4.813-5.776l0,0
		c0-3.191,2.154-5.778,4.813-5.778h14.633C833.976,51.107,836.132,53.694,836.132,56.884L836.132,56.884z"/>
	<path style="&st1;" d="M765.021,54.472c0,3.19-2.155,5.775-4.814,5.775h-14.633c-2.658,0-4.814-2.585-4.814-5.775l0,0
		c0-3.191,2.155-5.778,4.814-5.778h14.633C762.865,48.695,765.021,51.281,765.021,54.472L765.021,54.472z"/>
	<path style="&st1;" d="M689.719,56.884c0,3.19-2.155,5.776-4.814,5.776h-26.469c-2.658,0-4.814-2.586-4.814-5.776l0,0
		c0-3.191,2.155-5.778,4.814-5.778h26.469C687.564,51.107,689.719,53.694,689.719,56.884L689.719,56.884z"/>
	<path style="&st1;" d="M797.626,70.094c0,3.19-2.156,5.775-4.814,5.775h-26.469c-2.658,0-4.813-2.585-4.813-5.775l0,0
		c0-3.192,2.154-5.778,4.813-5.778h26.469C795.47,64.317,797.626,66.903,797.626,70.094L797.626,70.094z"/>
</g>
<g>
	<path style="&st1;" d="M882.962,117.886c0,3.191-2.154,5.776-4.813,5.776h-14.633c-2.658,0-4.814-2.585-4.814-5.776l0,0
		c0-3.191,2.156-5.777,4.814-5.777h14.633C880.808,112.109,882.962,114.695,882.962,117.886L882.962,117.886z"/>
	<path style="&st1;" d="M990.842,106.333c0,3.19-2.156,5.776-4.814,5.776h-14.633c-2.658,0-4.813-2.586-4.813-5.776l0,0
		c0-3.191,2.154-5.778,4.813-5.778h14.633C988.686,100.555,990.842,103.142,990.842,106.333L990.842,106.333z"/>
	<path style="&st1;" d="M919.73,103.921c0,3.19-2.155,5.775-4.814,5.775h-14.633c-2.658,0-4.814-2.585-4.814-5.775l0,0
		c0-3.191,2.155-5.778,4.814-5.778h14.633C917.575,98.143,919.73,100.73,919.73,103.921L919.73,103.921z"/>
	<path style="&st1;" d="M844.429,106.333c0,3.19-2.155,5.776-4.814,5.776h-26.469c-2.658,0-4.814-2.586-4.814-5.776l0,0
		c0-3.191,2.155-5.778,4.814-5.778h26.469C842.274,100.555,844.429,103.142,844.429,106.333L844.429,106.333z"/>
	<path style="&st1;" d="M952.336,119.543c0,3.19-2.156,5.775-4.814,5.775h-26.469c-2.658,0-4.813-2.585-4.813-5.775l0,0
		c0-3.191,2.154-5.778,4.813-5.778h26.469C950.18,113.765,952.336,116.352,952.336,119.543L952.336,119.543z"/>
</g>
</svg>
