<?xml version="1.0" encoding="utf-8"?>
<!-- Generator: Adobe Illustrator 25.0.0, SVG Export Plug-In . SVG Version: 6.00 Build 0)  -->
<!DOCTYPE svg PUBLIC "-//W3C//DTD SVG 1.1//EN" "http://www.w3.org/Graphics/SVG/1.1/DTD/svg11.dtd" [
	<!ENTITY st0 "fill:url(#SVGID_1_);">
	<!ENTITY st1 "fill:url(#SVGID_2_);">
	<!ENTITY st2 "fill:url(#SVGID_3_);">
	<!ENTITY st3 "fill:url(#SVGID_4_);">
]>
<svg version="1.1" id="Layer_1" xmlns="http://www.w3.org/2000/svg" xmlns:xlink="http://www.w3.org/1999/xlink" x="0px" y="0px"
	 viewBox="0 0 126 165" style="enable-background:new 0 0 126 165;" xml:space="preserve">
<g id="P">
	<linearGradient id="SVGID_1_" gradientUnits="userSpaceOnUse" x1="0" y1="82.5" x2="126" y2="82.5">
		<stop  offset="0" style="stop-color:#A4D165"/>
		<stop  offset="1" style="stop-color:#8DC63F"/>
	</linearGradient>
	<path style="&st0;" d="M29.898,165C13.412,165,0,150.804,0,133.356V31.644C0,14.196,13.412,0,29.898,0
		c0.179,0,0.357,0.003,0.535,0.007C30.612,0.003,30.788,0,30.966,0h38.441C100.613,0,126,26.87,126,59.897
		s-25.387,59.897-56.593,59.897h-9.61v13.562C59.797,150.804,46.384,165,29.898,165z"/>
	<linearGradient id="SVGID_2_" gradientUnits="userSpaceOnUse" x1="2.8475" y1="82.5" x2="123.1525" y2="82.5">
		<stop  offset="0" style="stop-color:#8DC63F"/>
		<stop  offset="1" style="stop-color:#A4D165"/>
	</linearGradient>
	<path style="&st1;" d="M29.898,161.986c-14.916,0-27.051-12.844-27.051-28.63V31.644c0-15.787,12.135-28.63,27.051-28.63
		c0.179,0,0.357,0.003,0.535,0.009c0.179-0.006,0.355-0.009,0.533-0.009h38.441c29.636,0,53.746,25.518,53.746,56.884
		s-24.11,56.884-53.746,56.884H56.949v16.575C56.949,149.143,44.814,161.986,29.898,161.986z"/>
	<linearGradient id="SVGID_3_" gradientUnits="userSpaceOnUse" x1="17.0847" y1="82.5" x2="108.9153" y2="82.5">
		<stop  offset="0" style="stop-color:#F1F2F2"/>
		<stop  offset="1" style="stop-color:#D1D3D4"/>
	</linearGradient>
	<path style="&st2;" d="M69.407,18.082H30.966c-0.18,0-0.355,0.021-0.534,0.029c-0.178-0.008-0.354-0.029-0.534-0.029
		c-7.076,0-12.814,6.072-12.814,13.562v101.712c0,7.489,5.737,13.562,12.814,13.562c7.076,0,12.814-6.072,12.814-13.562v-31.644
		h26.695c21.784,0,39.508-18.758,39.508-41.815S91.191,18.082,69.407,18.082z M69.407,74.589H43.78V45.205h25.627
		c7.654,0,13.881,6.591,13.881,14.692S77.061,74.589,69.407,74.589z"/>
	<linearGradient id="SVGID_4_" gradientUnits="userSpaceOnUse" x1="19.9322" y1="82.5" x2="106.0678" y2="82.5">
		<stop  offset="0" style="stop-color:#D1D3D4"/>
		<stop  offset="1" style="stop-color:#F1F2F2"/>
	</linearGradient>
	<path style="&st3;" d="M29.898,143.904c-5.495,0-9.966-4.732-9.966-10.548V31.644c0-5.816,4.471-10.548,9.966-10.548l0.534,0.031
		l0.399-0.022l38.576-0.009c20.215,0,36.661,17.407,36.661,38.801S89.622,98.699,69.407,98.699H39.864v34.658
		C39.864,139.172,35.394,143.904,29.898,143.904z M40.932,77.603h28.475c9.224,0,16.729-7.943,16.729-17.705
		s-7.504-17.705-16.729-17.705H40.932V77.603z"/>
</g>
</svg>
