<?xml version="1.0" encoding="utf-8"?>
<!-- Generator: Adobe Illustrator 25.0.0, SVG Export Plug-In . SVG Version: 6.00 Build 0)  -->
<!DOCTYPE svg PUBLIC "-//W3C//DTD SVG 1.1//EN" "http://www.w3.org/Graphics/SVG/1.1/DTD/svg11.dtd" [
	<!ENTITY st0 "fill:url(#SVGID_1_);">
	<!ENTITY st1 "fill:url(#SVGID_2_);">
	<!ENTITY st2 "fill:url(#SVGID_3_);">
	<!ENTITY st3 "fill:url(#SVGID_4_);">
]>
<svg version="1.1" id="Layer_1" xmlns="http://www.w3.org/2000/svg" xmlns:xlink="http://www.w3.org/1999/xlink" x="0px" y="0px"
	 viewBox="0 0 113.287 165" style="enable-background:new 0 0 113.287 165;" xml:space="preserve">
<g id="J">
	
		<linearGradient id="SVGID_1_" gradientUnits="userSpaceOnUse" x1="0.144" y1="83.5" x2="113.144" y2="83.5" gradientTransform="matrix(1 0 0 -1 0 166)">
		<stop  offset="0" style="stop-color:#A4D165"/>
		<stop  offset="1" style="stop-color:#8DC63F"/>
	</linearGradient>
	<path style="&st0;" d="M56.644,165c-31.155,0-56.5-26.869-56.5-59.897c0-17.449,13.39-31.644,29.849-31.644
		c9.425,0,17.943,4.594,23.453,12.019V31.644C53.446,14.195,66.836,0,83.295,0s29.849,14.195,29.849,31.644v73.459
		C113.144,138.131,87.798,165,56.644,165z"/>
	
		<linearGradient id="SVGID_2_" gradientUnits="userSpaceOnUse" x1="2.987" y1="83.5" x2="110.301" y2="83.5" gradientTransform="matrix(1 0 0 -1 0 166)">
		<stop  offset="0" style="stop-color:#8DC63F"/>
		<stop  offset="1" style="stop-color:#A4D165"/>
	</linearGradient>
	<path style="&st1;" d="M56.644,161.986c-29.587,0-53.657-25.518-53.657-56.884c0-15.787,12.115-28.63,27.006-28.63
		c12.77,0,23.498,9.444,26.296,22.091V31.644c0-15.787,12.115-28.63,27.006-28.63s27.006,12.844,27.006,28.63v73.459
		C110.301,136.469,86.23,161.986,56.644,161.986z"/>
	
		<linearGradient id="SVGID_3_" gradientUnits="userSpaceOnUse" x1="17.201" y1="83.5" x2="96.086" y2="83.5" gradientTransform="matrix(1 0 0 -1 0 166)">
		<stop  offset="0" style="stop-color:#F1F2F2"/>
		<stop  offset="1" style="stop-color:#D1D3D4"/>
	</linearGradient>
	<path style="&st2;" d="M56.644,146.918c-21.75,0-39.443-18.758-39.443-41.815c0-7.489,5.728-13.562,12.792-13.562
		c7.065,0,12.792,6.072,12.792,13.562c0,8.101,6.217,14.692,13.858,14.692s13.859-6.591,13.859-14.692V31.644
		c0-7.489,5.728-13.562,12.792-13.562c7.065,0,12.792,6.072,12.792,13.562v73.459C96.087,128.16,78.393,146.918,56.644,146.918z"/>
	
		<linearGradient id="SVGID_4_" gradientUnits="userSpaceOnUse" x1="20.043" y1="83.5" x2="93.245" y2="83.5" gradientTransform="matrix(1 0 0 -1 0 166)">
		<stop  offset="0" style="stop-color:#D1D3D4"/>
		<stop  offset="1" style="stop-color:#F1F2F2"/>
	</linearGradient>
	<path style="&st3;" d="M56.644,143.904c-20.182,0-36.601-17.406-36.601-38.801c0-5.816,4.463-10.548,9.95-10.548
		c5.486,0,9.95,4.732,9.95,10.548c0,9.763,7.492,17.705,16.701,17.705s16.701-7.943,16.701-17.705V31.644
		c0-5.816,4.463-10.548,9.95-10.548c5.486,0,9.95,4.732,9.95,10.548v73.459C93.244,126.498,76.826,143.904,56.644,143.904z"/>
</g>
</svg>
