<svg id="Layer_1" data-name="Layer 1" xmlns="http://www.w3.org/2000/svg" viewBox="0 0 64.1657 64.9881"><path d="M802.54381,418.30363a32.49669,32.49669,0,1,0,32.0828,32.494A32.29037,32.29037,0,0,0,802.54381,418.30363Zm0,60.1034a27.61159,27.61159,0,1,1,27.2599-27.6094A27.43647,27.43647,0,0,1,802.54381,478.407Z" transform="translate(-770.46091 -418.30363)" style="fill:#fff;opacity:0.30000000000000004"/><polygon points="32.083 8.372 39.262 23.105 55.315 25.468 43.699 36.936 46.441 53.128 32.083 45.483 17.725 53.128 20.467 36.936 8.851 25.468 24.904 23.105 32.083 8.372" style="fill:#f9b316"/><path d="M790.36081,464.01543c10.6302-5.5231,16.4526-11.0263,21.7995-20.0052a11.08116,11.08116,0,0,1,.9434-1.1768l-3.9822-.5862-6.5775-13.4985-6.5778,13.4985-14.7079,2.1647,10.6429,10.5068Z" transform="translate(-770.46091 -418.30363)" style="fill:#fde036"/></svg>