<?xml version="1.0" encoding="utf-8"?>
<!-- Generator: Adobe Illustrator 25.0.0, SVG Export Plug-In . SVG Version: 6.00 Build 0)  -->
<!DOCTYPE svg PUBLIC "-//W3C//DTD SVG 1.1//EN" "http://www.w3.org/Graphics/SVG/1.1/DTD/svg11.dtd" [
	<!ENTITY st0 "fill:#66AB18;">
	<!ENTITY st1 "fill:#FDE036;">
]>
<svg version="1.1" id="Layer_1" xmlns="http://www.w3.org/2000/svg" xmlns:xlink="http://www.w3.org/1999/xlink" x="0px" y="0px"
	 viewBox="0 0 40 65" style="enable-background:new 0 0 40 65;" xml:space="preserve">
<g>
	<g>
		<path style="&st0;" d="M16.636,45.795c3.608,7.759,3.382,15.496-0.504,17.28c-3.885,1.784-9.96-3.059-13.568-10.818
			c-3.608-7.759-3.382-15.495,0.504-17.28C6.953,33.193,13.029,38.036,16.636,45.795z"/>
		<path style="&st0;" d="M23.363,45.795c-3.608,7.759-3.382,15.496,0.504,17.28c3.886,1.784,9.96-3.059,13.569-10.818
			c3.606-7.759,3.382-15.495-0.505-17.28C33.046,33.193,26.971,38.036,23.363,45.795z"/>
	</g>
	<g>
		<rect x="17.881" y="24.535" style="&st0;" width="4.238" height="40.465"/>
		<path style="&st1;" d="M34.668,5.356c0.003-0.075,0.011-0.149,0.011-0.224C34.679,2.297,32.488,0,29.787,0
			c-2.703,0-4.894,2.297-4.894,5.131c0,0.076,0.008,0.149,0.011,0.224h-0.022c0.003-0.075,0.011-0.149,0.011-0.224
			C24.893,2.297,22.702,0,20,0c-2.703,0-4.894,2.297-4.894,5.131c0,0.076,0.008,0.149,0.011,0.224h-0.022
			c0.003-0.075,0.011-0.149,0.011-0.224C15.106,2.297,12.915,0,10.214,0C7.51,0,5.319,2.297,5.319,5.131
			c0,0.076,0.008,0.149,0.011,0.224H5.292C5.507,19.222,12.007,30.35,20,30.35c7.991,0,14.492-11.127,14.708-24.994H34.668z"/>
	</g>
</g>
</svg>
