<svg id="Layer_1" data-name="Layer 1" xmlns="http://www.w3.org/2000/svg" viewBox="0 0 90 120"><path d="M811.58831,509.77778V416.45433c0-4.94417-3.72052-8.952-8.311-8.952h-4.73783c-4.59061,0-8.311,4.00785-8.311,8.952v93.32345Z" transform="translate(-755.12121 -389.77778)" style="fill:#7b4d29"/><path d="M811.58831,492.5372V414.94545c0-4.111-3.72052-7.44314-8.311-7.44314h-4.73783c-4.59061,0-8.311,3.33213-8.311,7.44314V492.5372Z" transform="translate(-755.12121 -389.77778)" style="fill:#56331b;opacity:0.6000000000000001"/><path d="M845.12121,458.63964c0,10.09611-8.45239,18.28169-18.88012,18.28169H774.0028c-10.427,0-18.88159-8.18558-18.88159-18.28169V408.05947c0-10.09671,8.45459-18.28169,18.88159-18.28169h52.23829c10.42773,0,18.88012,8.185,18.88012,18.28169Z" transform="translate(-755.12121 -389.77778)" style="fill:#4e8709"/><path d="M826.24109,389.77778H774.0028c-10.427,0-18.88159,8.185-18.88159,18.28169V440.358c0,10.0961,8.45459,18.28169,18.88159,18.28169h52.23829c10.42773,0,18.88012-8.18559,18.88012-18.28169V408.05947C845.12121,397.96276,836.66882,389.77778,826.24109,389.77778Z" transform="translate(-755.12121 -389.77778)" style="fill:#66ab18"/><path d="M783.91565,412.02064a3.71856,3.71856,0,0,1-3.77636,3.65642H766.60755a3.71855,3.71855,0,0,1-3.77635-3.65642h0a3.71766,3.71766,0,0,1,3.77635-3.65652h13.53174a3.71767,3.71767,0,0,1,3.77636,3.65652Z" transform="translate(-755.12121 -389.77778)" style="fill:#4e8709;opacity:0.4"/><path d="M800.90827,429.08383a3.71838,3.71838,0,0,1-3.77552,3.65652H783.60091a3.71919,3.71919,0,0,1-3.777-3.65652h0a3.71835,3.71835,0,0,1,3.777-3.65652h13.53184a3.71753,3.71753,0,0,1,3.77552,3.65652Z" transform="translate(-755.12121 -389.77778)" style="fill:#4e8709;opacity:0.4"/><path d="M827.0271,446.14743a3.71774,3.71774,0,0,1-3.77625,3.655H809.72047a3.71819,3.71819,0,0,1-3.77782-3.655h0a3.71828,3.71828,0,0,1,3.77782-3.65723h13.53038a3.71783,3.71783,0,0,1,3.77625,3.65723Z" transform="translate(-755.12121 -389.77778)" style="fill:#4e8709"/><path d="M805.78612,402.27c0,2.01886-1.23638,3.65652-2.76187,3.65652h-9.8955c-1.5256,0-2.76187-1.63766-2.76187-3.65652h0c0-2.01957,1.23627-3.65612,2.76187-3.65612h9.8955c1.52549,0,2.76187,1.63655,2.76187,3.65612Z" transform="translate(-755.12121 -389.77778)" style="fill:#4e8709;opacity:0.4"/><path d="M834.73709,419.33328c0,2.01916-1.23627,3.65642-2.76187,3.65642h-9.8955c-1.5256,0-2.7626-1.63726-2.7626-3.65642h0c0-2.02,1.237-3.65622,2.7626-3.65622h9.8955c1.5256,0,2.76187,1.63625,2.76187,3.65622Z" transform="translate(-755.12121 -389.77778)" style="fill:#4e8709;opacity:0.4"/></svg>