<?xml version="1.0" encoding="utf-8"?>
<!-- Generator: Adobe Illustrator 25.0.0, SVG Export Plug-In . SVG Version: 6.00 Build 0)  -->
<!DOCTYPE svg PUBLIC "-//W3C//DTD SVG 1.1//EN" "http://www.w3.org/Graphics/SVG/1.1/DTD/svg11.dtd" [
	<!ENTITY st0 "fill:url(#SVGID_1_);">
	<!ENTITY st1 "fill:url(#SVGID_2_);">
	<!ENTITY st2 "fill:url(#SVGID_3_);">
	<!ENTITY st3 "fill:url(#SVGID_4_);">
]>
<svg version="1.1" id="Layer_1" xmlns="http://www.w3.org/2000/svg" xmlns:xlink="http://www.w3.org/1999/xlink" x="0px" y="0px"
	 viewBox="0 0 167 165" style="enable-background:new 0 0 167 165;" xml:space="preserve">
<g id="M">
	
		<linearGradient id="SVGID_1_" gradientUnits="userSpaceOnUse" x1="-4.299201e-04" y1="83.5" x2="167.0007" y2="83.5" gradientTransform="matrix(1 0 0 -1 0 166)">
		<stop  offset="0" style="stop-color:#A4D165"/>
		<stop  offset="1" style="stop-color:#8DC63F"/>
	</linearGradient>
	<path style="&st0;" d="M29.994,165c-2.19,0-4.389-0.257-6.537-0.762c-16.122-3.783-26.325-20.717-22.74-37.749L22.126,24.78
		c2.91-13.831,14.305-24.003,27.71-24.736C50.345,0.015,50.886,0,51.421,0c12.894,0,24.305,8.693,28.396,21.632l3.681,11.657
		l3.677-11.65c4.089-12.942,15.512-21.637,28.424-21.637c0.521,0,1.043,0.014,1.568,0.043c13.397,0.731,24.79,10.902,27.703,24.733
		l21.409,101.709c1.734,8.239,0.319,16.708-3.983,23.846c-4.303,7.138-10.971,12.077-18.775,13.908
		c-2.131,0.502-4.324,0.758-6.513,0.758c-11.403,0-21.718-6.991-26.739-17.41c-5.033,10.571-15.315,17.407-26.771,17.407
		s-21.738-6.836-26.771-17.407C51.705,158.008,41.393,164.999,29.994,165L29.994,165z"/>
	
		<linearGradient id="SVGID_2_" gradientUnits="userSpaceOnUse" x1="2.855" y1="83.5005" x2="164.1426" y2="83.5005" gradientTransform="matrix(1 0 0 -1 0 166)">
		<stop  offset="0" style="stop-color:#8DC63F"/>
		<stop  offset="1" style="stop-color:#A4D165"/>
	</linearGradient>
	<path style="&st1;" d="M29.994,161.986c-1.982,0-3.972-0.232-5.915-0.69C9.497,157.875,0.26,142.552,3.504,127.142L24.912,25.434
		C27.545,12.92,37.855,3.716,49.984,3.053c0.463-0.026,0.952-0.04,1.437-0.04c11.665,0,21.987,7.866,25.688,19.573l6.389,20.233
		l6.385-20.228c3.701-11.711,14.034-19.576,25.716-19.576c0.471,0,0.942,0.012,1.418,0.039c12.122,0.662,22.432,9.864,25.068,22.378
		l21.409,101.709c3.243,15.411-5.993,30.734-20.591,34.158c-1.929,0.455-3.917,0.686-5.894,0.686
		c-12.596,0-23.724-9.429-26.46-22.42l-0.17-0.811l-1.153,3.651c-3.699,11.71-14.037,19.576-25.727,19.576
		c-11.687,0-22.025-7.865-25.725-19.57l-1.154-3.654l-0.17,0.806C53.71,152.557,42.584,161.986,29.994,161.986z"/>
	
		<linearGradient id="SVGID_3_" gradientUnits="userSpaceOnUse" x1="17.1274" y1="83.4997" x2="149.8656" y2="83.4997" gradientTransform="matrix(1 0 0 -1 0 166)">
		<stop  offset="0" style="stop-color:#F1F2F2"/>
		<stop  offset="1" style="stop-color:#D1D3D4"/>
	</linearGradient>
	<path style="&st2;" d="M137.007,146.917c-5.887,0-11.196-4.302-12.528-10.622l-11.348-53.914l-17.447,55.261
		c-1.75,5.538-6.657,9.272-12.187,9.272s-10.437-3.735-12.187-9.272L53.864,82.381l-11.348,53.914
		c-1.541,7.311-8.402,11.928-15.327,10.295c-6.924-1.625-11.292-8.869-9.753-16.18L38.844,28.703
		c1.252-5.949,6.113-10.287,11.877-10.601c5.818-0.33,11.022,3.474,12.849,9.255L83.496,90.47l19.926-63.113
		c1.827-5.783,7.069-9.573,12.849-9.255c5.764,0.315,10.625,4.652,11.877,10.601l21.409,101.708
		c1.539,7.311-2.829,14.555-9.753,16.18C138.867,146.811,137.931,146.917,137.007,146.917z"/>
	
		<linearGradient id="SVGID_4_" gradientUnits="userSpaceOnUse" x1="19.9833" y1="83.4995" x2="147.0137" y2="83.4995" gradientTransform="matrix(1 0 0 -1 0 166)">
		<stop  offset="0" style="stop-color:#D1D3D4"/>
		<stop  offset="1" style="stop-color:#F1F2F2"/>
	</linearGradient>
	<path style="&st3;" d="M29.994,143.905c-0.729,0-1.464-0.086-2.184-0.256c-5.38-1.262-8.782-6.907-7.588-12.585L41.631,29.357
		c0.97-4.611,4.77-8.002,9.238-8.245c0.188-0.011,0.371-0.016,0.552-0.016c4.283,0,8.078,2.9,9.442,7.215l22.635,71.688
		l22.634-71.69c1.363-4.314,5.167-7.212,9.467-7.212c0.174,0,0.35,0.004,0.526,0.014c4.47,0.244,8.269,3.635,9.241,8.246
		l21.409,101.708c1.194,5.677-2.209,11.323-7.586,12.585c-0.719,0.169-1.452,0.255-2.18,0.255c-4.636,0-8.732-3.475-9.741-8.263
		l-13.584-64.534L92.978,136.69c-1.362,4.314-5.171,7.212-9.478,7.212s-8.116-2.899-9.479-7.213L53.314,71.106L39.73,135.641
		C38.721,140.429,34.626,143.905,29.994,143.905z"/>
</g>
</svg>
