<?xml version="1.0" encoding="utf-8"?>
<!-- Generator: Adobe Illustrator 25.0.0, SVG Export Plug-In . SVG Version: 6.00 Build 0)  -->
<!DOCTYPE svg PUBLIC "-//W3C//DTD SVG 1.1//EN" "http://www.w3.org/Graphics/SVG/1.1/DTD/svg11.dtd" [
	<!ENTITY st0 "fill:url(#SVGID_1_);">
	<!ENTITY st1 "fill:url(#SVGID_2_);">
	<!ENTITY st2 "fill:url(#SVGID_3_);">
	<!ENTITY st3 "fill:url(#SVGID_4_);">
]>
<svg version="1.1" id="Layer_1" xmlns="http://www.w3.org/2000/svg" xmlns:xlink="http://www.w3.org/1999/xlink" x="0px" y="0px"
	 viewBox="0 0 135 165" style="enable-background:new 0 0 135 165;" xml:space="preserve">
<g id="Y">
	<linearGradient id="SVGID_1_" gradientUnits="userSpaceOnUse" x1="0" y1="82.5" x2="135" y2="82.5">
		<stop  offset="0" style="stop-color:#A4D165"/>
		<stop  offset="1" style="stop-color:#8DC63F"/>
	</linearGradient>
	<path style="&st0;" d="M67.5,165c-16.545,0-30.006-14.196-30.006-31.644V94.302L6.113,50.805
		C-3.903,36.919-1.341,17.027,11.824,6.46C17.091,2.234,23.37,0,29.983,0c9.459,0,18.167,4.55,23.891,12.484L67.5,31.372
		l13.627-18.889C86.849,4.55,95.556,0,105.016,0c6.613,0,12.892,2.234,18.158,6.459c13.166,10.567,15.73,30.459,5.714,44.345
		L97.505,94.302v39.055C97.505,150.804,84.044,165,67.5,165z"/>
	<linearGradient id="SVGID_2_" gradientUnits="userSpaceOnUse" x1="2.8559" y1="82.5" x2="132.1441" y2="82.5">
		<stop  offset="0" style="stop-color:#8DC63F"/>
		<stop  offset="1" style="stop-color:#A4D165"/>
	</linearGradient>
	<path style="&st1;" d="M67.5,161.986c-14.969,0-27.148-12.844-27.148-28.63V93.285L8.387,48.98
		c-9.063-12.564-6.745-30.561,5.167-40.121c4.766-3.825,10.447-5.845,16.429-5.845c8.559,0,16.439,4.117,21.617,11.295l15.9,22.039
		l15.901-22.041c5.177-7.177,13.056-11.294,21.615-11.294c5.982,0,11.662,2.02,16.427,5.843c11.913,9.561,14.233,27.557,5.17,40.121
		L94.648,93.285v40.071C94.648,149.143,82.469,161.986,67.5,161.986z"/>
	<linearGradient id="SVGID_3_" gradientUnits="userSpaceOnUse" x1="17.1331" y1="82.4999" x2="117.8675" y2="82.4999">
		<stop  offset="0" style="stop-color:#F1F2F2"/>
		<stop  offset="1" style="stop-color:#D1D3D4"/>
	</linearGradient>
	<path style="&st2;" d="M112.793,20.85c-5.651-4.534-13.722-3.377-18.021,2.583L67.5,61.233l-27.272-37.8
		c-4.299-5.96-12.37-7.116-18.021-2.583c-5.653,4.536-6.748,13.045-2.449,19.005l34.882,48.348v45.153
		c0,7.489,5.758,13.562,12.86,13.562c7.102,0,12.86-6.072,12.86-13.562V88.203l34.882-48.348
		C119.541,33.895,118.447,25.386,112.793,20.85z"/>
	<linearGradient id="SVGID_4_" gradientUnits="userSpaceOnUse" x1="19.9948" y1="82.5" x2="115.0049" y2="82.5">
		<stop  offset="0" style="stop-color:#D1D3D4"/>
		<stop  offset="1" style="stop-color:#F1F2F2"/>
	</linearGradient>
	<path style="&st3;" d="M67.5,143.904c-5.514,0-10.002-4.732-10.002-10.548V87.187L22.032,38.03
		c-3.339-4.628-2.484-11.259,1.905-14.781c1.755-1.408,3.846-2.153,6.046-2.153c3.158,0,6.063,1.517,7.97,4.162L67.5,66.21
		l29.546-40.953c1.908-2.644,4.813-4.162,7.97-4.162c2.2,0,4.291,0.745,6.046,2.153c4.39,3.521,5.244,10.154,1.905,14.781
		L77.501,87.187v46.169C77.501,139.172,73.014,143.904,67.5,143.904z"/>
</g>
</svg>
