<?xml version="1.0" encoding="utf-8"?>
<!-- Generator: Adobe Illustrator 25.0.0, SVG Export Plug-In . SVG Version: 6.00 Build 0)  -->
<!DOCTYPE svg PUBLIC "-//W3C//DTD SVG 1.1//EN" "http://www.w3.org/Graphics/SVG/1.1/DTD/svg11.dtd" [
	<!ENTITY st0 "fill:#46A7F9;">
	<!ENTITY st1 "opacity:0.2;fill:#9FD4FF;">
	<!ENTITY st2 "fill:#FFFFFF;">
]>
<svg version="1.1" id="Layer_1" xmlns="http://www.w3.org/2000/svg" xmlns:xlink="http://www.w3.org/1999/xlink" x="0px" y="0px"
	 viewBox="0 0 1600 900" style="enable-background:new 0 0 1600 900;" xml:space="preserve">
<rect style="&st0;" width="1600" height="900"/>
<g>
	<rect y="790.581" style="&st1;" width="1600" height="109.012"/>
	<rect y="713.348" style="&st1;" width="1600" height="186.246"/>
	<rect y="653.294" style="&st1;" width="1600" height="246.3"/>
</g>
<g>
	<path style="&st2;" d="M942.187,226.888c0.215,1.835,0.344,3.698,0.344,5.59c0,25.256-20.468,45.724-45.739,45.724
		c-8.715,0-16.856-2.437-23.794-6.665c-1.605,2.437-3.383,4.744-5.318,6.909c-10.822,12.141-26.589,19.795-44.147,19.795
		c-15.022,0-28.724-5.604-39.159-14.821c-8.729,12.399-21.959,20.311-36.794,20.311H535.141c-13.904,0-26.417-6.966-35.117-18.06
		c-7.138,2.824-14.921,4.4-23.063,4.4c-13.56,0-26.102-4.314-36.364-11.625c-1.878-1.333-3.669-2.766-5.389-4.3
		c-2.609,1.72-5.418,3.168-8.371,4.3c-4.845,1.863-10.12,2.895-15.638,2.895c-5.518,0-10.793-1.018-15.638-2.895
		c-16.398-6.278-28.022-22.16-28.022-40.765c0-24.109,19.537-43.66,43.66-43.66c4.042,0,7.955,0.559,11.682,1.591
		c3.454-5.877,7.841-11.137,12.958-15.566c10.148-8.844,23.163-14.463,37.468-15.28c-0.287-2.609-0.444-5.26-0.444-7.941
		c0-21.085,9.002-40.062,23.378-53.292c12.914-11.883,30.129-19.15,49.064-19.15c13.416,0,25.972,3.655,36.737,10.005
		c0-0.301-0.014-0.588-0.014-0.889c0-27.234,22.074-49.308,49.308-49.308c25.757,0,46.885,19.737,49.107,44.907
		c3.168-0.645,6.45-0.989,9.818-0.989c14.033,0,26.675,5.934,35.533,15.423c7.325,7.797,12.098,18.003,13.015,29.298
		c3.211-1.405,6.751-2.207,10.492-2.207c14.362,0,26.015,11.653,26.015,26.03c0,0.086-0.014,0.172-0.014,0.272
		c4.372-2.222,9.317-3.483,14.549-3.483c15.81,0,28.954,11.424,31.62,26.474c0.688-0.014,1.376-0.043,2.064-0.043
		c1.505,0,2.996,0.057,4.458,0.172c6.78,0.502,13.216,2.15,19.164,4.744c0.158-1.634,0.487-3.225,0.946-4.744
		c3.125-10.435,12.814-18.046,24.267-18.046s21.128,7.597,24.253,18.046c0.659,2.136,1.018,4.386,1.075,6.722
		c9.174,0.172,17.688,3.039,24.783,7.855c3.669-4.443,9.217-7.267,15.437-7.267c11.037,0,19.995,8.944,19.995,19.995
		C957.911,216.94,951.174,224.938,942.187,226.888z"/>
	<path style="&st1;" d="M395.561,278.446h31.276c-4.845,1.863-10.12,2.895-15.638,2.895
		C405.68,281.341,400.405,280.323,395.561,278.446z"/>
	<path style="&st1;" d="M867.681,278.446c-10.822,12.141-26.589,19.795-44.147,19.795c-15.022,0-28.724-5.604-39.159-14.821
		c-8.729,12.399-21.959,20.311-36.794,20.311H535.141c-13.904,0-26.417-6.966-35.117-18.06c-7.138,2.824-14.921,4.4-23.063,4.4
		c-13.56,0-26.102-4.314-36.364-11.625H867.681z"/>
	<path style="&st1;" d="M942.187,226.888c0.215,1.835,0.344,3.698,0.344,5.59c0,25.256-20.468,45.724-45.739,45.724
		c-8.715,0-16.856-2.437-23.794-6.665c-1.605,2.437-3.383,4.744-5.318,6.909c-10.822,12.141-26.589,19.795-44.147,19.795
		c-15.022,0-28.724-5.604-39.159-14.821c-8.729,12.399-21.959,20.311-36.794,20.311H535.141c-13.904,0-26.417-6.966-35.117-18.06
		c-7.138,2.824-14.921,4.4-23.063,4.4c-13.56,0-26.102-4.314-36.364-11.625c-1.878-1.333-3.669-2.766-5.389-4.3
		c-2.609,1.72-5.418,3.168-8.371,4.3c-4.845,1.863-10.12,2.895-15.638,2.895c-5.518,0-10.793-1.018-15.638-2.895
		c-16.398-6.278-28.022-22.16-28.022-40.765c0-24.109,19.537-43.66,43.66-43.66c4.042,0,7.955,0.559,11.682,1.591
		c3.454-5.877,7.841-11.137,12.958-15.566h392.153c6.78,0.502,13.216,2.15,19.164,4.744c0.158-1.634,0.487-3.225,0.946-4.744h48.519
		c0.659,2.136,1.018,4.386,1.075,6.722c9.174,0.172,17.688,3.039,24.783,7.855c3.669-4.443,9.217-7.267,15.437-7.267
		c11.037,0,19.995,8.944,19.995,19.995C957.911,216.94,951.174,224.938,942.187,226.888z"/>
	<path style="&st1;" d="M942.187,226.888c0.215,1.835,0.344,3.698,0.344,5.59c0,25.256-20.468,45.724-45.739,45.724
		c-8.715,0-16.856-2.437-23.794-6.665c-1.605,2.437-3.383,4.744-5.318,6.909c-10.822,12.141-26.589,19.795-44.147,19.795
		c-15.022,0-28.724-5.604-39.159-14.821c-8.729,12.399-21.959,20.311-36.794,20.311H535.141c-13.904,0-26.417-6.966-35.117-18.06
		c-7.138,2.824-14.921,4.4-23.063,4.4c-13.56,0-26.102-4.314-36.364-11.625c-1.878-1.333-3.669-2.766-5.389-4.3
		c-2.609,1.72-5.418,3.168-8.371,4.3c-4.845,1.863-10.12,2.895-15.638,2.895c-5.518,0-10.793-1.018-15.638-2.895
		c-16.398-6.278-28.022-22.16-28.022-40.765c0-24.109,19.537-43.66,43.66-43.66c4.042,0,7.955,0.559,11.682,1.591
		c3.454-5.877,7.841-11.137,12.958-15.566c10.148-8.844,23.163-14.463,37.468-15.28c-0.287-2.609-0.444-5.26-0.444-7.941
		c0-21.085,9.002-40.062,23.378-53.292h229.553c7.325,7.797,12.098,18.003,13.015,29.298c3.211-1.405,6.751-2.207,10.492-2.207
		c14.362,0,26.015,11.653,26.015,26.03c0,0.086-0.014,0.172-0.014,0.272c4.372-2.222,9.317-3.483,14.549-3.483
		c15.81,0,28.954,11.424,31.62,26.474c0.688-0.014,1.376-0.043,2.064-0.043c1.505,0,2.996,0.057,4.458,0.172
		c6.78,0.502,13.216,2.15,19.164,4.744c0.158-1.634,0.487-3.225,0.946-4.744c3.125-10.435,12.814-18.046,24.267-18.046
		s21.128,7.597,24.253,18.046c0.659,2.136,1.018,4.386,1.075,6.722c9.174,0.172,17.688,3.039,24.783,7.855
		c3.669-4.443,9.217-7.267,15.437-7.267c11.037,0,19.995,8.944,19.995,19.995C957.911,216.94,951.174,224.938,942.187,226.888z"/>
</g>
<g>
	<path style="&st2;" d="M1182.622,297.775c0.169,1.44,0.27,2.902,0.27,4.388c0,19.823-16.065,35.887-35.899,35.887
		c-6.84,0-13.23-1.913-18.675-5.231c-1.26,1.912-2.655,3.724-4.174,5.422c-8.494,9.529-20.869,15.536-34.65,15.536
		c-11.79,0-22.545-4.399-30.735-11.632c-6.851,9.731-17.235,15.941-28.879,15.941H863.145c-10.913,0-20.734-5.467-27.562-14.175
		c-5.602,2.216-11.711,3.454-18.101,3.454c-10.643,0-20.486-3.386-28.541-9.124c-1.474-1.046-2.88-2.171-4.23-3.375
		c-2.047,1.35-4.253,2.486-6.57,3.375c-3.802,1.463-7.943,2.273-12.274,2.273s-8.471-0.799-12.274-2.273
		c-12.87-4.927-21.994-17.392-21.994-31.995c0-18.922,15.334-34.267,34.268-34.267c3.173,0,6.244,0.439,9.169,1.249
		c2.711-4.612,6.154-8.741,10.17-12.217c7.965-6.941,18.18-11.351,29.407-11.993c-0.225-2.047-0.349-4.129-0.349-6.232
		c0-16.549,7.065-31.444,18.349-41.827c10.136-9.326,23.647-15.03,38.509-15.03c10.53,0,20.385,2.869,28.834,7.852
		c0-0.236-0.011-0.461-0.011-0.697c0-21.375,17.325-38.7,38.7-38.7c20.216,0,36.799,15.491,38.543,35.246
		c2.486-0.506,5.062-0.776,7.706-0.776c11.014,0,20.936,4.658,27.889,12.105c5.749,6.12,9.495,14.13,10.215,22.995
		c2.52-1.102,5.299-1.732,8.235-1.732c11.272,0,20.419,9.146,20.419,20.43c0,0.067-0.011,0.135-0.011,0.214
		c3.431-1.744,7.312-2.734,11.419-2.734c12.409,0,22.725,8.966,24.817,20.779c0.54-0.011,1.08-0.034,1.62-0.034
		c1.181,0,2.351,0.045,3.499,0.135c5.321,0.394,10.373,1.688,15.041,3.724c0.124-1.283,0.382-2.531,0.743-3.724
		c2.452-8.19,10.057-14.164,19.046-14.164c8.989,0,16.583,5.962,19.035,14.164c0.518,1.676,0.799,3.442,0.844,5.276
		c7.2,0.135,13.882,2.385,19.451,6.165c2.88-3.487,7.234-5.704,12.116-5.704c8.663,0,15.694,7.02,15.694,15.694
		C1194.964,289.967,1189.676,296.245,1182.622,297.775z"/>
	<path style="&st1;" d="M753.592,338.241h24.547c-3.802,1.463-7.943,2.273-12.274,2.273S757.395,339.715,753.592,338.241z"/>
	<path style="&st1;" d="M1124.145,338.241c-8.494,9.529-20.869,15.536-34.65,15.536c-11.79,0-22.545-4.399-30.735-11.632
		c-6.851,9.731-17.235,15.941-28.879,15.941H863.145c-10.913,0-20.734-5.467-27.562-14.175c-5.602,2.216-11.711,3.454-18.101,3.454
		c-10.643,0-20.486-3.386-28.541-9.124H1124.145z"/>
	<path style="&st1;" d="M1182.622,297.775c0.169,1.44,0.27,2.902,0.27,4.388c0,19.823-16.065,35.887-35.899,35.887
		c-6.84,0-13.23-1.913-18.675-5.231c-1.26,1.912-2.655,3.724-4.174,5.422c-8.494,9.529-20.869,15.536-34.65,15.536
		c-11.79,0-22.545-4.399-30.735-11.632c-6.851,9.731-17.235,15.941-28.879,15.941H863.145c-10.913,0-20.734-5.467-27.562-14.175
		c-5.602,2.216-11.711,3.454-18.101,3.454c-10.643,0-20.486-3.386-28.541-9.124c-1.474-1.046-2.88-2.171-4.23-3.375
		c-2.047,1.35-4.253,2.486-6.57,3.375c-3.802,1.463-7.943,2.273-12.274,2.273s-8.471-0.799-12.274-2.273
		c-12.87-4.927-21.994-17.392-21.994-31.995c0-18.922,15.334-34.267,34.268-34.267c3.173,0,6.244,0.439,9.169,1.249
		c2.711-4.612,6.154-8.741,10.17-12.217h307.789c5.321,0.394,10.373,1.688,15.041,3.724c0.124-1.283,0.382-2.531,0.743-3.724h38.081
		c0.518,1.676,0.799,3.442,0.844,5.276c7.2,0.135,13.882,2.385,19.451,6.165c2.88-3.487,7.234-5.704,12.116-5.704
		c8.663,0,15.694,7.02,15.694,15.694C1194.964,289.967,1189.676,296.245,1182.622,297.775z"/>
	<path style="&st1;" d="M1182.622,297.775c0.169,1.44,0.27,2.902,0.27,4.388c0,19.823-16.065,35.887-35.899,35.887
		c-6.84,0-13.23-1.913-18.675-5.231c-1.26,1.912-2.655,3.724-4.174,5.422c-8.494,9.529-20.869,15.536-34.65,15.536
		c-11.79,0-22.545-4.399-30.735-11.632c-6.851,9.731-17.235,15.941-28.879,15.941H863.145c-10.913,0-20.734-5.467-27.562-14.175
		c-5.602,2.216-11.711,3.454-18.101,3.454c-10.643,0-20.486-3.386-28.541-9.124c-1.474-1.046-2.88-2.171-4.23-3.375
		c-2.047,1.35-4.253,2.486-6.57,3.375c-3.802,1.463-7.943,2.273-12.274,2.273s-8.471-0.799-12.274-2.273
		c-12.87-4.927-21.994-17.392-21.994-31.995c0-18.922,15.334-34.267,34.268-34.267c3.173,0,6.244,0.439,9.169,1.249
		c2.711-4.612,6.154-8.741,10.17-12.217c7.965-6.941,18.18-11.351,29.407-11.993c-0.225-2.047-0.349-4.129-0.349-6.232
		c0-16.549,7.065-31.444,18.349-41.827h180.169c5.749,6.12,9.495,14.13,10.215,22.995c2.52-1.102,5.299-1.732,8.235-1.732
		c11.272,0,20.419,9.146,20.419,20.43c0,0.067-0.011,0.135-0.011,0.214c3.431-1.744,7.312-2.734,11.419-2.734
		c12.409,0,22.725,8.966,24.817,20.779c0.54-0.011,1.08-0.034,1.62-0.034c1.181,0,2.351,0.045,3.499,0.135
		c5.321,0.394,10.373,1.688,15.041,3.724c0.124-1.283,0.382-2.531,0.743-3.724c2.452-8.19,10.057-14.164,19.046-14.164
		c8.989,0,16.583,5.962,19.035,14.164c0.518,1.676,0.799,3.442,0.844,5.276c7.2,0.135,13.882,2.385,19.451,6.165
		c2.88-3.487,7.234-5.704,12.116-5.704c8.663,0,15.694,7.02,15.694,15.694C1194.964,289.967,1189.676,296.245,1182.622,297.775z"/>
</g>
<g>
	<path style="&st2;" d="M1487.7,157.829c0.104,0.885,0.166,1.783,0.166,2.695c0,12.177-9.869,22.046-22.053,22.046
		c-4.202,0-8.127-1.175-11.472-3.214c-0.774,1.175-1.631,2.288-2.564,3.331c-5.218,5.854-12.82,9.544-21.286,9.544
		c-7.243,0-13.85-2.702-18.881-7.146c-4.209,5.978-10.588,9.793-17.741,9.793h-102.429c-6.704,0-12.737-3.359-16.932-8.708
		c-3.442,1.361-7.194,2.122-11.12,2.122c-6.538,0-12.585-2.08-17.533-5.605c-0.905-0.643-1.769-1.334-2.599-2.073
		c-1.258,0.829-2.612,1.527-4.036,2.073c-2.336,0.898-4.879,1.396-7.54,1.396s-5.204-0.491-7.54-1.396
		c-7.906-3.027-13.511-10.685-13.511-19.655c0-11.624,9.42-21.051,21.051-21.051c1.949,0,3.836,0.27,5.633,0.767
		c1.666-2.834,3.78-5.37,6.248-7.505c4.893-4.264,11.168-6.973,18.066-7.367c-0.138-1.258-0.214-2.536-0.214-3.829
		c0-10.166,4.34-19.317,11.272-25.695c6.227-5.729,14.527-9.233,23.657-9.233c6.469,0,12.523,1.762,17.713,4.824
		c0-0.145-0.007-0.283-0.007-0.428c0-13.131,10.643-23.774,23.774-23.774c12.419,0,22.606,9.517,23.677,21.653
		c1.527-0.311,3.11-0.477,4.734-0.477c6.766,0,12.862,2.861,17.133,7.436c3.532,3.76,5.833,8.68,6.275,14.126
		c1.548-0.677,3.255-1.064,5.059-1.064c6.925,0,12.544,5.619,12.544,12.551c0,0.041-0.007,0.083-0.007,0.131
		c2.108-1.071,4.492-1.679,7.015-1.679c7.623,0,13.96,5.508,15.246,12.765c0.332-0.007,0.664-0.021,0.995-0.021
		c0.726,0,1.444,0.028,2.149,0.083c3.269,0.242,6.372,1.037,9.24,2.288c0.076-0.788,0.235-1.555,0.456-2.288
		c1.507-5.031,6.178-8.701,11.7-8.701s10.187,3.663,11.694,8.701c0.318,1.03,0.491,2.115,0.518,3.241
		c4.423,0.083,8.528,1.465,11.949,3.787c1.769-2.142,4.444-3.504,7.443-3.504c5.322,0,9.641,4.313,9.641,9.641
		C1495.281,153.033,1492.033,156.889,1487.7,157.829z"/>
	<path style="&st1;" d="M1224.138,182.688h15.08c-2.336,0.898-4.879,1.396-7.54,1.396S1226.474,183.594,1224.138,182.688z"/>
	<path style="&st1;" d="M1451.776,182.688c-5.218,5.854-12.82,9.544-21.286,9.544c-7.243,0-13.85-2.702-18.881-7.146
		c-4.209,5.978-10.588,9.793-17.741,9.793h-102.429c-6.704,0-12.737-3.359-16.932-8.708c-3.442,1.361-7.194,2.122-11.12,2.122
		c-6.538,0-12.585-2.08-17.533-5.605H1451.776z"/>
	<path style="&st1;" d="M1487.7,157.829c0.104,0.885,0.166,1.783,0.166,2.695c0,12.177-9.869,22.046-22.053,22.046
		c-4.202,0-8.127-1.175-11.472-3.214c-0.774,1.175-1.631,2.288-2.564,3.331c-5.218,5.854-12.82,9.544-21.286,9.544
		c-7.243,0-13.85-2.702-18.881-7.146c-4.209,5.978-10.588,9.793-17.741,9.793h-102.429c-6.704,0-12.737-3.359-16.932-8.708
		c-3.442,1.361-7.194,2.122-11.12,2.122c-6.538,0-12.585-2.08-17.533-5.605c-0.905-0.643-1.769-1.334-2.599-2.073
		c-1.258,0.829-2.612,1.527-4.036,2.073c-2.336,0.898-4.879,1.396-7.54,1.396s-5.204-0.491-7.54-1.396
		c-7.906-3.027-13.511-10.685-13.511-19.655c0-11.624,9.42-21.051,21.051-21.051c1.949,0,3.836,0.27,5.633,0.767
		c1.666-2.834,3.78-5.37,6.248-7.505h189.081c3.269,0.242,6.372,1.037,9.24,2.288c0.076-0.788,0.235-1.555,0.456-2.288h23.394
		c0.318,1.03,0.491,2.115,0.518,3.241c4.423,0.083,8.528,1.465,11.949,3.787c1.769-2.142,4.444-3.504,7.443-3.504
		c5.322,0,9.641,4.313,9.641,9.641C1495.281,153.033,1492.033,156.889,1487.7,157.829z"/>
	<path style="&st1;" d="M1487.7,157.829c0.104,0.885,0.166,1.783,0.166,2.695c0,12.177-9.869,22.046-22.053,22.046
		c-4.202,0-8.127-1.175-11.472-3.214c-0.774,1.175-1.631,2.288-2.564,3.331c-5.218,5.854-12.82,9.544-21.286,9.544
		c-7.243,0-13.85-2.702-18.881-7.146c-4.209,5.978-10.588,9.793-17.741,9.793h-102.429c-6.704,0-12.737-3.359-16.932-8.708
		c-3.442,1.361-7.194,2.122-11.12,2.122c-6.538,0-12.585-2.08-17.533-5.605c-0.905-0.643-1.769-1.334-2.599-2.073
		c-1.258,0.829-2.612,1.527-4.036,2.073c-2.336,0.898-4.879,1.396-7.54,1.396s-5.204-0.491-7.54-1.396
		c-7.906-3.027-13.511-10.685-13.511-19.655c0-11.624,9.42-21.051,21.051-21.051c1.949,0,3.836,0.27,5.633,0.767
		c1.666-2.834,3.78-5.37,6.248-7.505c4.893-4.264,11.168-6.973,18.066-7.367c-0.138-1.258-0.214-2.536-0.214-3.829
		c0-10.166,4.34-19.317,11.272-25.695h110.681c3.532,3.76,5.833,8.68,6.275,14.126c1.548-0.677,3.255-1.064,5.059-1.064
		c6.925,0,12.544,5.619,12.544,12.551c0,0.041-0.007,0.083-0.007,0.131c2.108-1.071,4.492-1.679,7.015-1.679
		c7.623,0,13.96,5.508,15.246,12.765c0.332-0.007,0.664-0.021,0.995-0.021c0.726,0,1.444,0.028,2.149,0.083
		c3.269,0.242,6.372,1.037,9.24,2.288c0.076-0.788,0.235-1.555,0.456-2.288c1.507-5.031,6.178-8.701,11.7-8.701
		s10.187,3.663,11.694,8.701c0.318,1.03,0.491,2.115,0.518,3.241c4.423,0.083,8.528,1.465,11.949,3.787
		c1.769-2.142,4.444-3.504,7.443-3.504c5.322,0,9.641,4.313,9.641,9.641C1495.281,153.033,1492.033,156.889,1487.7,157.829z"/>
</g>
<g>
	<path style="&st2;" d="M338.763,332.067c0.104,0.885,0.166,1.783,0.166,2.695c0,12.177-9.869,22.046-22.053,22.046
		c-4.202,0-8.127-1.175-11.472-3.214c-0.774,1.175-1.631,2.288-2.564,3.331c-5.218,5.854-12.82,9.544-21.286,9.544
		c-7.243,0-13.85-2.702-18.881-7.146c-4.209,5.978-10.588,9.793-17.741,9.793h-102.43c-6.704,0-12.737-3.359-16.932-8.708
		c-3.442,1.361-7.194,2.122-11.12,2.122c-6.538,0-12.585-2.08-17.533-5.605c-0.905-0.643-1.769-1.334-2.599-2.073
		c-1.258,0.829-2.612,1.527-4.036,2.073c-2.336,0.898-4.879,1.396-7.54,1.396c-2.661,0-5.204-0.491-7.54-1.396
		c-7.906-3.027-13.511-10.685-13.511-19.655c0-11.624,9.42-21.051,21.051-21.051c1.949,0,3.836,0.27,5.633,0.767
		c1.666-2.834,3.78-5.37,6.248-7.505c4.893-4.264,11.168-6.973,18.066-7.367c-0.138-1.258-0.214-2.536-0.214-3.829
		c0-10.166,4.34-19.317,11.272-25.695c6.227-5.729,14.527-9.233,23.657-9.233c6.469,0,12.523,1.762,17.713,4.824
		c0-0.145-0.007-0.283-0.007-0.428c0-13.131,10.643-23.774,23.774-23.774c12.419,0,22.606,9.517,23.677,21.653
		c1.527-0.311,3.11-0.477,4.734-0.477c6.766,0,12.862,2.861,17.133,7.436c3.532,3.76,5.833,8.68,6.275,14.126
		c1.548-0.677,3.255-1.064,5.059-1.064c6.925,0,12.544,5.619,12.544,12.551c0,0.041-0.007,0.083-0.007,0.131
		c2.108-1.071,4.492-1.679,7.015-1.679c7.623,0,13.96,5.508,15.246,12.765c0.332-0.007,0.664-0.021,0.995-0.021
		c0.726,0,1.444,0.028,2.149,0.083c3.269,0.242,6.372,1.037,9.24,2.288c0.076-0.788,0.235-1.555,0.456-2.288
		c1.507-5.031,6.178-8.701,11.7-8.701s10.187,3.663,11.694,8.701c0.318,1.03,0.491,2.115,0.518,3.241
		c4.423,0.083,8.528,1.465,11.949,3.787c1.769-2.142,4.444-3.504,7.443-3.504c5.322,0,9.641,4.313,9.641,9.641
		C346.345,327.271,343.097,331.127,338.763,332.067z"/>
	<path style="&st1;" d="M75.202,356.927h15.08c-2.336,0.898-4.879,1.396-7.54,1.396C80.081,358.323,77.538,357.832,75.202,356.927z"
		/>
	<path style="&st1;" d="M302.84,356.927c-5.218,5.854-12.82,9.544-21.286,9.544c-7.243,0-13.85-2.702-18.881-7.146
		c-4.209,5.978-10.588,9.793-17.741,9.793h-102.43c-6.704,0-12.737-3.359-16.932-8.708c-3.442,1.361-7.194,2.122-11.12,2.122
		c-6.538,0-12.585-2.08-17.533-5.605H302.84z"/>
	<path style="&st1;" d="M338.763,332.067c0.104,0.885,0.166,1.783,0.166,2.695c0,12.177-9.869,22.046-22.053,22.046
		c-4.202,0-8.127-1.175-11.472-3.214c-0.774,1.175-1.631,2.288-2.564,3.331c-5.218,5.854-12.82,9.544-21.286,9.544
		c-7.243,0-13.85-2.702-18.881-7.146c-4.209,5.978-10.588,9.793-17.741,9.793h-102.43c-6.704,0-12.737-3.359-16.932-8.708
		c-3.442,1.361-7.194,2.122-11.12,2.122c-6.538,0-12.585-2.08-17.533-5.605c-0.905-0.643-1.769-1.334-2.599-2.073
		c-1.258,0.829-2.612,1.527-4.036,2.073c-2.336,0.898-4.879,1.396-7.54,1.396c-2.661,0-5.204-0.491-7.54-1.396
		c-7.906-3.027-13.511-10.685-13.511-19.655c0-11.624,9.42-21.051,21.051-21.051c1.949,0,3.836,0.27,5.633,0.767
		c1.666-2.834,3.78-5.37,6.248-7.505h189.081c3.269,0.242,6.372,1.037,9.24,2.288c0.076-0.788,0.235-1.555,0.456-2.288h23.394
		c0.318,1.03,0.491,2.115,0.518,3.241c4.423,0.083,8.528,1.465,11.949,3.787c1.769-2.142,4.444-3.504,7.443-3.504
		c5.322,0,9.641,4.313,9.641,9.641C346.345,327.271,343.097,331.127,338.763,332.067z"/>
	<path style="&st1;" d="M338.763,332.067c0.104,0.885,0.166,1.783,0.166,2.695c0,12.177-9.869,22.046-22.053,22.046
		c-4.202,0-8.127-1.175-11.472-3.214c-0.774,1.175-1.631,2.288-2.564,3.331c-5.218,5.854-12.82,9.544-21.286,9.544
		c-7.243,0-13.85-2.702-18.881-7.146c-4.209,5.978-10.588,9.793-17.741,9.793h-102.43c-6.704,0-12.737-3.359-16.932-8.708
		c-3.442,1.361-7.194,2.122-11.12,2.122c-6.538,0-12.585-2.08-17.533-5.605c-0.905-0.643-1.769-1.334-2.599-2.073
		c-1.258,0.829-2.612,1.527-4.036,2.073c-2.336,0.898-4.879,1.396-7.54,1.396c-2.661,0-5.204-0.491-7.54-1.396
		c-7.906-3.027-13.511-10.685-13.511-19.655c0-11.624,9.42-21.051,21.051-21.051c1.949,0,3.836,0.27,5.633,0.767
		c1.666-2.834,3.78-5.37,6.248-7.505c4.893-4.264,11.168-6.973,18.066-7.367c-0.138-1.258-0.214-2.536-0.214-3.829
		c0-10.166,4.34-19.317,11.272-25.695h110.681c3.532,3.76,5.833,8.68,6.275,14.126c1.548-0.677,3.255-1.064,5.059-1.064
		c6.925,0,12.544,5.619,12.544,12.551c0,0.041-0.007,0.083-0.007,0.131c2.108-1.071,4.492-1.679,7.015-1.679
		c7.623,0,13.96,5.508,15.246,12.765c0.332-0.007,0.664-0.021,0.995-0.021c0.726,0,1.444,0.028,2.149,0.083
		c3.269,0.242,6.372,1.037,9.24,2.288c0.076-0.788,0.235-1.555,0.456-2.288c1.507-5.031,6.178-8.701,11.7-8.701
		s10.187,3.663,11.694,8.701c0.318,1.03,0.491,2.115,0.518,3.241c4.423,0.083,8.528,1.465,11.949,3.787
		c1.769-2.142,4.444-3.504,7.443-3.504c5.322,0,9.641,4.313,9.641,9.641C346.345,327.271,343.097,331.127,338.763,332.067z"/>
</g>
</svg>
