<svg id="Layer_1" data-name="Layer 1" xmlns="http://www.w3.org/2000/svg" viewBox="0 0 180 230"><rect x="4.56" y="2.6" width="171.28" height="227.4" style="fill:#7c4e2a"/><rect x="123.06" y="139.26" width="20.48" height="10.57" style="fill:#56331b;opacity:0.4000000059604645;isolation:isolate"/><rect x="109.7" y="152.5" width="20.48" height="10.57" style="fill:#56331b;opacity:0.4000000059604645;isolation:isolate"/><rect x="112.83" y="216.69" width="20.48" height="10.57" style="fill:#56331b;opacity:0.699999988079071;isolation:isolate"/><rect x="9.81" y="163.94" width="20.48" height="10.57" style="fill:#56331b;opacity:0.699999988079071;isolation:isolate"/><rect x="123.06" y="61.32" width="20.48" height="10.57" style="fill:#56331b;opacity:0.699999988079071;isolation:isolate"/><rect x="109.66" y="75.04" width="20.48" height="10.57" style="fill:#56331b;opacity:0.4000000059604645;isolation:isolate"/><rect x="65.54" y="108.97" width="20.48" height="10.57" style="fill:#56331b;opacity:0.699999988079071;isolation:isolate"/><rect x="55.3" y="95.58" width="20.48" height="10.57" style="fill:#56331b;opacity:0.699999988079071;isolation:isolate"/><rect x="60.43" y="203.41" width="20.48" height="10.57" style="fill:#56331b;opacity:0.699999988079071;isolation:isolate"/><rect x="73.45" y="190.3" width="20.48" height="10.57" style="fill:#56331b;opacity:0.4000000059604645;isolation:isolate"/><rect x="129.75" y="191.57" width="20.48" height="10.57" style="fill:#56331b;opacity:0.4000000059604645;isolation:isolate"/><rect x="42.42" y="149.82" width="20.48" height="10.57" style="fill:#56331b;opacity:0.4000000059604645;isolation:isolate"/><rect x="20.05" y="57.68" width="20.48" height="10.57" style="fill:#56331b;opacity:0.699999988079071;isolation:isolate"/><rect x="32.18" y="44.23" width="20.48" height="10.57" style="fill:#56331b;opacity:0.4000000059604645;isolation:isolate"/><rect width="180" height="17.29" style="fill:#82bc37"/></svg>