<svg id="Layer_1" data-name="Layer 1" xmlns="http://www.w3.org/2000/svg" viewBox="0 0 1600 120"><rect y="9.40102" width="1600" height="110.59898" style="fill:#7c4e2a"/><rect x="810.565" y="43.45601" width="20.10004" height="10.66711" style="fill:#56331b;opacity:0.699999988079071;isolation:isolate"/><rect x="870.09497" y="31.55271" width="20.10004" height="10.66711" style="fill:#56331b;opacity:0.699999988079071;isolation:isolate"/><rect x="797.40503" y="57.28338" width="20.10004" height="10.6671" style="fill:#56331b;opacity:0.4000000059604645;isolation:isolate"/><rect x="754.09497" y="91.51782" width="20.09998" height="10.6671" style="fill:#56331b;opacity:0.699999988079071;isolation:isolate"/><rect x="744.04498" y="77.9995" width="20.09998" height="10.6671" style="fill:#56331b;opacity:0.699999988079071;isolation:isolate"/><rect x="709.42499" y="39.76738" width="20.09998" height="10.66712" style="fill:#56331b;opacity:0.699999988079071;isolation:isolate"/><rect x="721.34497" y="26.21915" width="20.09998" height="10.66711" style="fill:#56331b;opacity:0.4000000059604645;isolation:isolate"/><rect x="854.69501" y="91.51782" width="20.10004" height="10.6671" style="fill:#56331b;opacity:0.4000000059604645;isolation:isolate"/><rect x="888.57501" y="54.20287" width="20.10004" height="10.66711" style="fill:#56331b;opacity:0.4000000059604645;isolation:isolate"/><rect width="1600" height="17.44621" style="fill:#82bc37"/><rect x="510.65955" y="47.20445" width="20.10004" height="10.66711" style="fill:#56331b;opacity:0.699999988079071;isolation:isolate"/><rect x="570.18958" y="35.30115" width="20.10004" height="10.66711" style="fill:#56331b;opacity:0.699999988079071;isolation:isolate"/><rect x="497.49957" y="61.03181" width="20.10004" height="10.6671" style="fill:#56331b;opacity:0.4000000059604645;isolation:isolate"/><rect x="454.18958" y="95.26626" width="20.10001" height="10.6671" style="fill:#56331b;opacity:0.699999988079071;isolation:isolate"/><rect x="444.13956" y="81.74793" width="20.10001" height="10.6671" style="fill:#56331b;opacity:0.699999988079071;isolation:isolate"/><rect x="409.51956" y="43.51582" width="20.10001" height="10.66712" style="fill:#56331b;opacity:0.699999988079071;isolation:isolate"/><rect x="421.43958" y="29.96759" width="20.10001" height="10.66711" style="fill:#56331b;opacity:0.4000000059604645;isolation:isolate"/><rect x="554.78955" y="95.26626" width="20.10004" height="10.6671" style="fill:#56331b;opacity:0.4000000059604645;isolation:isolate"/><rect x="588.66956" y="57.95132" width="20.10004" height="10.66711" style="fill:#56331b;opacity:0.4000000059604645;isolation:isolate"/><rect x="1129.55322" y="47.20445" width="20.09998" height="10.66711" style="fill:#56331b;opacity:0.699999988079071;isolation:isolate"/><rect x="1189.08313" y="35.30115" width="20.09998" height="10.66711" style="fill:#56331b;opacity:0.699999988079071;isolation:isolate"/><rect x="1116.39319" y="61.03181" width="20.09998" height="10.6671" style="fill:#56331b;opacity:0.4000000059604645;isolation:isolate"/><rect x="1073.08313" y="95.26626" width="20.09998" height="10.6671" style="fill:#56331b;opacity:0.699999988079071;isolation:isolate"/><rect x="1063.0332" y="81.74793" width="20.09998" height="10.6671" style="fill:#56331b;opacity:0.699999988079071;isolation:isolate"/><rect x="1028.41321" y="43.51582" width="20.09998" height="10.66712" style="fill:#56331b;opacity:0.699999988079071;isolation:isolate"/><rect x="1040.33313" y="29.96759" width="20.09998" height="10.66711" style="fill:#56331b;opacity:0.4000000059604645;isolation:isolate"/><rect x="1173.68323" y="95.26626" width="20.09998" height="10.6671" style="fill:#56331b;opacity:0.4000000059604645;isolation:isolate"/><rect x="1207.56323" y="57.95132" width="20.09998" height="10.66711" style="fill:#56331b;opacity:0.4000000059604645;isolation:isolate"/><rect x="190.99998" y="47.20445" width="20.10001" height="10.66711" style="fill:#56331b;opacity:0.699999988079071;isolation:isolate"/><rect x="250.52998" y="35.30115" width="20.10002" height="10.66711" style="fill:#56331b;opacity:0.699999988079071;isolation:isolate"/><rect x="177.84" y="61.03181" width="20.10001" height="10.6671" style="fill:#56331b;opacity:0.4000000059604645;isolation:isolate"/><rect x="134.52998" y="95.26626" width="20.10001" height="10.6671" style="fill:#56331b;opacity:0.699999988079071;isolation:isolate"/><rect x="124.47999" y="81.74793" width="20.1" height="10.6671" style="fill:#56331b;opacity:0.699999988079071;isolation:isolate"/><rect x="89.85999" y="43.51582" width="20.1" height="10.66712" style="fill:#56331b;opacity:0.699999988079071;isolation:isolate"/><rect x="101.77999" y="29.96759" width="20.1" height="10.66711" style="fill:#56331b;opacity:0.4000000059604645;isolation:isolate"/><rect x="235.12999" y="95.26626" width="20.10001" height="10.6671" style="fill:#56331b;opacity:0.4000000059604645;isolation:isolate"/><rect x="269.00998" y="57.95132" width="20.10001" height="10.66711" style="fill:#56331b;opacity:0.4000000059604645;isolation:isolate"/><rect x="1434.88831" y="47.20445" width="20.09998" height="10.66711" style="fill:#56331b;opacity:0.699999988079071;isolation:isolate"/><rect x="1494.41833" y="35.30115" width="20.09998" height="10.66711" style="fill:#56331b;opacity:0.699999988079071;isolation:isolate"/><rect x="1421.72827" y="61.03181" width="20.09998" height="10.6671" style="fill:#56331b;opacity:0.4000000059604645;isolation:isolate"/><rect x="1378.41833" y="95.26626" width="20.09998" height="10.6671" style="fill:#56331b;opacity:0.699999988079071;isolation:isolate"/><rect x="1368.36829" y="81.74793" width="20.09998" height="10.6671" style="fill:#56331b;opacity:0.699999988079071;isolation:isolate"/><rect x="1333.74829" y="43.51582" width="20.09998" height="10.66712" style="fill:#56331b;opacity:0.699999988079071;isolation:isolate"/><rect x="1345.66833" y="29.96759" width="20.09998" height="10.66711" style="fill:#56331b;opacity:0.4000000059604645;isolation:isolate"/><rect x="1479.01831" y="95.26626" width="20.09998" height="10.6671" style="fill:#56331b;opacity:0.4000000059604645;isolation:isolate"/><rect x="1512.89832" y="57.95132" width="20.09998" height="10.66711" style="fill:#56331b;opacity:0.4000000059604645;isolation:isolate"/></svg>