<?xml version="1.0" encoding="utf-8"?>
<!-- Generator: Adobe Illustrator 25.0.0, SVG Export Plug-In . SVG Version: 6.00 Build 0)  -->
<!DOCTYPE svg PUBLIC "-//W3C//DTD SVG 1.1//EN" "http://www.w3.org/Graphics/SVG/1.1/DTD/svg11.dtd" [
	<!ENTITY st0 "opacity:0.5;">
	<!ENTITY st1 "opacity:0.6;">
	<!ENTITY st2 "fill:#FFFFFF;">
	<!ENTITY st3 "fill:#F9B316;">
	<!ENTITY st4 "fill:#FDE036;">
]>
<svg version="1.1" xmlns="http://www.w3.org/2000/svg" xmlns:xlink="http://www.w3.org/1999/xlink" x="0px" y="0px"
	 viewBox="0 0 600 600" style="enable-background:new 0 0 600 600;" xml:space="preserve">
<g id="Layer_2">
	<g style="&st0;">
		<path d="M517.021,600H82.979C37.151,600,0,562.849,0,517.021V82.979C0,37.151,37.151,0,82.979,0h434.043
			C562.849,0,600,37.151,600,82.979v434.043C600,562.849,562.849,600,517.021,600z"/>
	</g>
	<g style="&st1;">
		<path d="M517.021,20C551.748,20,580,48.252,580,82.979v434.042C580,551.748,551.748,580,517.021,580H82.979
			C48.252,580,20,551.748,20,517.021V82.979C20,48.252,48.252,20,82.979,20H517.021 M517.021,0H82.979C37.151,0,0,37.151,0,82.979
			v434.042C0,562.849,37.151,600,82.979,600h434.042C562.849,600,600,562.849,600,517.021V82.979C600,37.151,562.849,0,517.021,0
			L517.021,0z"/>
	</g>
</g>
<g id="Layer_3">
	<g>
		<g>
			<path style="&st2;" d="M158.634,327.168h12.53l13.73,43.101l13.73-43.101h12.53l-21.506,64.606h-9.509L158.634,327.168z"/>
			<path style="&st2;" d="M217.153,327.168h12.175v12.175h-12.175V327.168z M217.153,345.652h12.175v46.122h-12.175V345.652z"/>
			<path style="&st2;" d="M248.901,389.931c-3.125-1.674-5.502-4.11-7.131-7.31c-1.629-3.199-2.444-7.05-2.444-11.553v-4.933
				c0-4.472,0.814-8.286,2.444-11.441c1.629-3.154,4.006-5.561,7.131-7.221c3.125-1.658,6.88-2.488,11.264-2.488
				c2.518,0,4.895,0.289,7.131,0.867c2.236,0.577,4.244,1.415,6.021,2.51c1.777,1.097,3.258,2.43,4.443,4l-7.865,7.643
				c-1.126-1.037-2.444-1.845-3.955-2.422c-1.511-0.578-3.096-0.867-4.754-0.867c-3.081,0-5.465,0.822-7.154,2.467
				c-1.688,1.644-2.533,3.962-2.533,6.953v4.933c0,3.081,0.844,5.458,2.533,7.132s4.073,2.51,7.154,2.51
				c1.688,0,3.288-0.311,4.799-0.933s2.814-1.511,3.91-2.666l7.865,8.087c-1.215,1.541-2.71,2.852-4.488,3.933
				s-3.777,1.903-5.999,2.466s-4.592,0.844-7.109,0.844C255.781,392.44,252.026,391.604,248.901,389.931z"/>
			<path style="&st2;" d="M282.426,345.652h22.573v10.397h-22.573V345.652z M290.002,388.908c-1.882-2.059-2.822-5.102-2.822-9.131
				v-47.544h12.175v44.522c0,1.126,0.222,1.992,0.667,2.6s1.096,0.911,1.956,0.911h3.021v11.73h-6.132
				C294.838,391.997,291.883,390.968,290.002,388.908z"/>
			<path style="&st2;" d="M323.461,390.086c-2.977-1.569-5.243-3.858-6.798-6.865c-1.556-3.006-2.333-6.627-2.333-10.864v-7.509
				c0-4.177,0.777-7.754,2.333-10.73c1.555-2.978,3.821-5.243,6.798-6.799c2.978-1.555,6.568-2.333,10.775-2.333
				c4.206,0,7.798,0.778,10.775,2.333c2.977,1.556,5.243,3.821,6.798,6.799c1.556,2.977,2.333,6.554,2.333,10.73v7.643
				c0,4.207-0.777,7.798-2.333,10.775c-1.555,2.977-3.821,5.251-6.798,6.82c-2.978,1.57-6.569,2.354-10.775,2.354
				C330.029,392.44,326.438,391.656,323.461,390.086z M339.924,378.556c1.362-1.437,2.044-3.458,2.044-6.065v-7.643
				c0-2.577-0.682-4.577-2.044-5.999c-1.363-1.422-3.273-2.133-5.731-2.133c-2.43,0-4.318,0.711-5.666,2.133
				s-2.021,3.422-2.021,5.999v7.643c0,2.607,0.666,4.629,2,6.065c1.332,1.437,3.228,2.154,5.688,2.154
				C336.65,380.71,338.561,379.992,339.924,378.556z"/>
			<path style="&st2;" d="M365.251,345.652h13.063v46.122h-13.063V345.652z M389.022,357.161c-0.859-0.296-1.852-0.445-2.977-0.445
				c-2.459,0-4.362,0.793-5.71,2.378s-2.021,3.784-2.021,6.599l-0.933-11.998c1.272-2.754,2.925-4.895,4.954-6.42
				c2.028-1.525,4.258-2.289,6.687-2.289c1.926,0,3.666,0.305,5.222,0.911c1.555,0.607,2.91,1.504,4.065,2.688l-7.109,9.908
				C390.607,357.901,389.882,357.457,389.022,357.161z"/>
			<path style="&st2;" d="M399.198,345.652h11.464l15.508,40.079l-7.688,9.82L399.198,345.652z M441.811,345.652l-20.529,56.919
				c-0.771,2.104-1.726,3.77-2.865,4.999c-1.141,1.229-2.548,2.11-4.222,2.644s-3.74,0.801-6.198,0.801h-2.711v-11.82h2.711
				c1.303,0,2.392-0.288,3.266-0.866c0.874-0.577,1.533-1.519,1.978-2.821l17.106-49.854H441.811z"/>
		</g>
	</g>
	<g>
		<polygon style="&st3;" points="300,112.816 315.643,144.967 350.621,150.123 325.311,175.149 331.285,210.485 300,193.801 
			268.715,210.485 274.689,175.149 249.379,150.123 284.357,144.967 		"/>
		<path style="&st4;" d="M273.454,194.301c23.163-12.053,35.849-24.062,47.5-43.656c0.626-0.902,1.313-1.76,2.056-2.568
			l-8.677-1.279L300,117.34l-14.333,29.457l-32.048,4.724l23.19,22.929L273.454,194.301z"/>
	</g>
	<g>
		<g>
			<polygon style="&st3;" points="123.955,167.48 139.597,199.631 174.576,204.788 149.265,229.814 155.24,265.149 123.955,248.466 
				92.669,265.149 98.644,229.814 73.334,204.788 108.312,199.631 			"/>
			<path style="&st4;" d="M97.408,248.965c23.163-12.053,35.849-24.062,47.5-43.656c0.626-0.902,1.313-1.76,2.056-2.568
				l-8.677-1.279l-14.332-29.457l-14.333,29.457l-32.048,4.724l23.19,22.929L97.408,248.965z"/>
		</g>
		<g>
			<polygon style="&st3;" points="476.045,167.48 491.688,199.631 526.666,204.788 501.356,229.814 507.331,265.149 
				476.045,248.466 444.76,265.149 450.735,229.814 425.424,204.788 460.403,199.631 			"/>
			<path style="&st4;" d="M449.499,248.965c23.163-12.053,35.849-24.062,47.5-43.656c0.626-0.902,1.313-1.76,2.056-2.568
				l-8.677-1.279l-14.332-29.457l-14.333,29.457l-32.048,4.724l23.19,22.929L449.499,248.965z"/>
		</g>
	</g>
	<g>
		<g>
			<polygon style="&st3;" points="213.227,141.51 228.87,173.661 263.848,178.818 238.538,203.844 244.513,239.179 213.227,222.496 
				181.942,239.179 187.917,203.844 162.606,178.818 197.585,173.661 			"/>
			<path style="&st4;" d="M186.681,222.995c23.163-12.053,35.849-24.062,47.5-43.656c0.626-0.902,1.313-1.76,2.056-2.568
				l-8.677-1.279l-14.332-29.457l-14.333,29.457l-32.048,4.724l23.19,22.929L186.681,222.995z"/>
		</g>
		<g>
			<polygon style="&st3;" points="386.773,141.51 402.415,173.661 437.394,178.818 412.083,203.844 418.058,239.179 
				386.773,222.496 355.487,239.179 361.462,203.844 336.152,178.818 371.13,173.661 			"/>
			<path style="&st4;" d="M360.226,222.995c23.163-12.053,35.849-24.062,47.5-43.656c0.626-0.902,1.313-1.76,2.056-2.568
				l-8.677-1.279l-14.332-29.457l-14.333,29.457l-32.048,4.724l23.19,22.929L360.226,222.995z"/>
		</g>
	</g>
</g>
<g id="Layer_1">
</g>
</svg>
