<?xml version="1.0" encoding="utf-8"?>
<!-- Generator: Adobe Illustrator 25.0.0, SVG Export Plug-In . SVG Version: 6.00 Build 0)  -->
<!DOCTYPE svg PUBLIC "-//W3C//DTD SVG 1.1//EN" "http://www.w3.org/Graphics/SVG/1.1/DTD/svg11.dtd" [
	<!ENTITY st0 "opacity:0.5;">
	<!ENTITY st1 "opacity:0.6;">
	<!ENTITY st2 "fill:#FFFFFF;">
	<!ENTITY st3 "fill:url(#SVGID_1_);">
	<!ENTITY st4 "fill:url(#SVGID_2_);">
	<!ENTITY st5 "fill:url(#SVGID_3_);">
	<!ENTITY st6 "fill:url(#SVGID_4_);">
]>
<svg version="1.1" xmlns="http://www.w3.org/2000/svg" xmlns:xlink="http://www.w3.org/1999/xlink" x="0px" y="0px"
	 viewBox="0 0 600 600" style="enable-background:new 0 0 600 600;" xml:space="preserve">
<g id="Layer_2">
	<g style="&st0;">
		<path d="M517.021,600H82.979C37.151,600,0,562.849,0,517.021V82.979C0,37.151,37.151,0,82.979,0h434.043
			C562.849,0,600,37.151,600,82.979v434.043C600,562.849,562.849,600,517.021,600z"/>
	</g>
	<g style="&st1;">
		<path d="M517.021,20C551.748,20,580,48.252,580,82.979v434.042C580,551.748,551.748,580,517.021,580H82.979
			C48.252,580,20,551.748,20,517.021V82.979C20,48.252,48.252,20,82.979,20H517.021 M517.021,0H82.979C37.151,0,0,37.151,0,82.979
			v434.042C0,562.849,37.151,600,82.979,600h434.042C562.849,600,600,562.849,600,517.021V82.979C600,37.151,562.849,0,517.021,0
			L517.021,0z"/>
	</g>
</g>
<g id="Layer_3">
	<g>
		<g>
			<g>
				<path style="&st2;" d="M120.957,421.786c-1.767-0.95-3.115-2.336-4.043-4.154c-0.929-1.82-1.393-4.018-1.393-6.593v-8.962
					c0-2.575,0.464-4.773,1.393-6.592c0.928-1.82,2.276-3.209,4.043-4.167c1.767-0.958,3.893-1.438,6.379-1.438
					c2.051,0,3.886,0.441,5.503,1.325s2.954,2.168,4.009,3.852c1.056,1.686,1.786,3.718,2.19,6.099h-6.379
					c-0.24-1.078-0.61-1.999-1.112-2.763c-0.502-0.764-1.108-1.348-1.819-1.752c-0.711-0.404-1.509-0.606-2.392-0.606
					c-1.153,0-2.134,0.235-2.942,0.708c-0.809,0.471-1.426,1.16-1.853,2.066c-0.427,0.905-0.64,1.995-0.64,3.268v8.962
					c0,1.272,0.213,2.358,0.64,3.257s1.044,1.584,1.853,2.055c0.809,0.473,1.789,0.708,2.942,0.708c0.898,0,1.707-0.198,2.426-0.595
					c0.719-0.397,1.325-0.978,1.819-1.741s0.854-1.692,1.078-2.785h6.379c-0.419,2.381-1.157,4.413-2.212,6.099
					c-1.056,1.684-2.389,2.968-3.998,3.852c-1.61,0.884-3.44,1.325-5.492,1.325C124.85,423.213,122.724,422.737,120.957,421.786z"/>
				<path style="&st2;" d="M148.146,422.022c-1.505-0.794-2.65-1.95-3.437-3.471c-0.786-1.52-1.179-3.35-1.179-5.491v-3.796
					c0-2.111,0.393-3.92,1.179-5.424c0.786-1.506,1.932-2.65,3.437-3.438c1.505-0.785,3.32-1.179,5.447-1.179
					c2.126,0,3.942,0.394,5.447,1.179c1.505,0.787,2.65,1.932,3.437,3.438c0.786,1.504,1.179,3.312,1.179,5.424v3.863
					c0,2.126-0.393,3.941-1.179,5.447c-0.786,1.504-1.932,2.653-3.437,3.447s-3.321,1.19-5.447,1.19
					C151.466,423.213,149.651,422.816,148.146,422.022z M156.468,416.194c0.688-0.727,1.033-1.749,1.033-3.066v-3.863
					c0-1.303-0.345-2.313-1.033-3.032c-0.689-0.719-1.655-1.078-2.897-1.078c-1.228,0-2.183,0.359-2.864,1.078
					c-0.682,0.719-1.022,1.729-1.022,3.032v3.863c0,1.317,0.337,2.34,1.011,3.066c0.674,0.726,1.632,1.089,2.875,1.089
					C154.813,417.283,155.779,416.92,156.468,416.194z"/>
				<path style="&st2;" d="M175.425,415.172c0,0.569,0.161,1.007,0.483,1.313c0.322,0.308,0.782,0.461,1.381,0.461h1.033v5.93
					h-3.145c-1.872,0-3.324-0.539-4.357-1.617s-1.55-2.598-1.55-4.56v-26.481h6.154V415.172z"/>
				<path style="&st2;" d="M188.744,415.172c0,0.569,0.161,1.007,0.483,1.313c0.322,0.308,0.782,0.461,1.381,0.461h1.033v5.93
					h-3.145c-1.872,0-3.324-0.539-4.357-1.617s-1.55-2.598-1.55-4.56v-26.481h6.154V415.172z"/>
				<path style="&st2;" d="M200.143,421.989c-1.595-0.816-2.812-2.007-3.65-3.572c-0.839-1.564-1.258-3.447-1.258-5.648v-2.628
					c0-2.306,0.4-4.275,1.202-5.907c0.801-1.632,1.969-2.875,3.504-3.729c1.535-0.854,3.388-1.28,5.559-1.28
					c2.036,0,3.781,0.509,5.233,1.527c1.452,1.019,2.557,2.497,3.313,4.437c0.756,1.938,1.134,4.278,1.134,7.019v1.527h-15.947
					v-4.155h10.332l-0.067-0.539c-0.165-1.348-0.588-2.389-1.269-3.122c-0.682-0.733-1.591-1.101-2.729-1.101
					c-1.482,0-2.632,0.441-3.448,1.325c-0.816,0.884-1.224,2.134-1.224,3.751v2.965c0,1.587,0.445,2.815,1.336,3.684
					c0.891,0.868,2.137,1.303,3.74,1.303c0.823,0,1.64-0.146,2.448-0.438c0.809-0.293,1.542-0.708,2.201-1.247l4.021,3.571
					c-1.213,1.108-2.576,1.965-4.088,2.572c-1.513,0.605-3.04,0.909-4.582,0.909C203.658,423.213,201.738,422.805,200.143,421.989z"
					/>
				<path style="&st2;" d="M224.738,421.944c-1.58-0.847-2.782-2.078-3.605-3.695c-0.824-1.617-1.235-3.563-1.235-5.84v-2.493
					c0-2.261,0.412-4.188,1.235-5.784c0.823-1.594,2.025-2.811,3.605-3.649c1.58-0.839,3.478-1.258,5.694-1.258
					c1.272,0,2.474,0.146,3.605,0.438c1.13,0.291,2.145,0.715,3.043,1.269s1.647,1.228,2.246,2.021l-3.976,3.863
					c-0.569-0.524-1.235-0.933-1.999-1.224c-0.764-0.293-1.565-0.438-2.403-0.438c-1.558,0-2.763,0.415-3.616,1.247
					c-0.854,0.83-1.28,2.002-1.28,3.515v2.493c0,1.558,0.427,2.759,1.28,3.605c0.854,0.846,2.059,1.269,3.616,1.269
					c0.854,0,1.662-0.157,2.426-0.472s1.422-0.764,1.977-1.348l3.976,4.088c-0.614,0.778-1.37,1.441-2.269,1.988
					c-0.898,0.546-1.909,0.962-3.032,1.246s-2.321,0.427-3.594,0.427C228.215,423.213,226.317,422.79,224.738,421.944z"/>
				<path style="&st2;" d="M241.685,399.562h11.41v5.256h-11.41V399.562z M245.514,421.427c-0.951-1.04-1.426-2.579-1.426-4.615
					v-24.033h6.154v22.506c0,0.569,0.112,1.007,0.337,1.314c0.225,0.307,0.554,0.46,0.988,0.46h1.527v5.93h-3.1
					C247.958,422.988,246.465,422.468,245.514,421.427z"/>
				<path style="&st2;" d="M271.569,421.427c-1.235-1.189-1.853-2.998-1.853-5.424c0-2.306,0.692-4.035,2.078-5.188
					c1.385-1.153,3.462-1.729,6.233-1.729h5.84l0.314,4.694h-6.132c-0.929,0-1.625,0.184-2.089,0.55
					c-0.464,0.367-0.696,0.925-0.696,1.674c0,0.764,0.292,1.329,0.876,1.695c0.584,0.367,1.467,0.551,2.65,0.551
					c1.647,0,2.871-0.188,3.672-0.562c0.801-0.374,1.202-0.958,1.202-1.752l0.472,3.392c-0.09,0.839-0.476,1.55-1.157,2.134
					c-0.682,0.584-1.535,1.022-2.561,1.313c-1.026,0.293-2.108,0.438-3.246,0.438C274.672,423.213,272.804,422.618,271.569,421.427z
					 M283.664,408.097c0-1.078-0.359-1.909-1.078-2.493s-1.737-0.876-3.055-0.876c-0.869,0-1.729,0.143-2.583,0.427
					s-1.61,0.682-2.269,1.19l-3.818-3.751c0.928-1.063,2.156-1.891,3.684-2.481c1.527-0.592,3.219-0.888,5.076-0.888
					c2.036,0,3.773,0.341,5.211,1.022c1.438,0.681,2.534,1.669,3.291,2.965c0.756,1.295,1.134,2.855,1.134,4.683v14.981h-5.593
					V408.097z"/>
				<path style="&st2;" d="M301.476,415.172c0,0.569,0.161,1.007,0.482,1.313c0.322,0.308,0.783,0.461,1.382,0.461h1.033v5.93
					h-3.145c-1.872,0-3.324-0.539-4.357-1.617s-1.55-2.598-1.55-4.56v-26.481h6.154V415.172z"/>
				<path style="&st2;" d="M314.795,415.172c0,0.569,0.161,1.007,0.482,1.313c0.322,0.308,0.783,0.461,1.382,0.461h1.033v5.93
					h-3.145c-1.872,0-3.324-0.539-4.357-1.617s-1.55-2.598-1.55-4.56v-26.481h6.154V415.172z"/>
				<path style="&st2;" d="M338.929,422.056c-1.399-0.771-2.522-1.894-3.369-3.369c-0.846-1.475-1.336-3.223-1.471-5.244v-0.022
					h6.154v0.022c0.12,1.198,0.486,2.13,1.101,2.797c0.614,0.666,1.415,0.999,2.403,0.999c1.078,0,1.913-0.352,2.504-1.056
					c0.592-0.704,0.888-1.699,0.888-2.987v-2.74c0-1.288-0.266-2.28-0.798-2.976c-0.531-0.697-1.276-1.045-2.234-1.045
					c-0.884,0-1.636,0.225-2.258,0.674c-0.621,0.449-1.052,1.078-1.291,1.887h-5.75v-18.777h17.542v5.93h-11.388v5.772
					c0.464-0.449,1.097-0.805,1.898-1.067c0.801-0.262,1.598-0.393,2.392-0.393c1.692,0,3.141,0.39,4.347,1.168
					c1.205,0.778,2.122,1.917,2.751,3.414s0.943,3.302,0.943,5.413v2.74c0,2.111-0.378,3.916-1.134,5.413
					c-0.757,1.497-1.854,2.639-3.291,3.426c-1.438,0.785-3.175,1.179-5.211,1.179C341.905,423.213,340.329,422.827,338.929,422.056z
					"/>
				<path style="&st2;" d="M377.854,422.741c-1.489-0.314-2.89-0.775-4.199-1.381c-1.311-0.607-2.482-1.337-3.516-2.19l2.853-5.076
					c1.258,1.033,2.71,1.831,4.357,2.392c1.647,0.562,3.339,0.843,5.076,0.843c2.007,0,3.563-0.341,4.672-1.022
					c1.108-0.681,1.662-1.643,1.662-2.886v-0.022c0-0.868-0.247-1.558-0.741-2.066s-1.138-0.884-1.932-1.123
					s-1.812-0.457-3.055-0.651c-0.045-0.015-0.086-0.022-0.123-0.022c-0.038,0-0.079-0.008-0.124-0.022l-0.494-0.067
					c-2.187-0.345-3.998-0.775-5.436-1.291c-1.438-0.518-2.658-1.423-3.661-2.719c-1.003-1.295-1.505-3.133-1.505-5.514v-0.022
					c0-2.111,0.472-3.916,1.415-5.413s2.313-2.639,4.11-3.426c1.797-0.785,3.968-1.179,6.514-1.179c1.168,0,2.362,0.135,3.583,0.404
					c1.22,0.27,2.414,0.659,3.582,1.168s2.276,1.123,3.324,1.842l-2.605,5.211c-1.258-0.868-2.572-1.542-3.941-2.021
					c-1.371-0.479-2.685-0.719-3.942-0.719c-1.887,0-3.347,0.311-4.38,0.933c-1.033,0.621-1.55,1.493-1.55,2.616v0.022
					c0,0.943,0.27,1.688,0.809,2.234c0.539,0.547,1.205,0.947,1.999,1.202s1.909,0.524,3.347,0.809
					c0.06,0.015,0.12,0.026,0.18,0.034c0.06,0.007,0.12,0.019,0.18,0.033c0.09,0.015,0.176,0.033,0.259,0.057
					c0.082,0.021,0.168,0.041,0.258,0.056c2.066,0.404,3.792,0.895,5.178,1.472c1.385,0.576,2.541,1.504,3.47,2.785
					c0.929,1.279,1.393,3.028,1.393,5.244v0.045c0,2.081-0.486,3.863-1.46,5.346s-2.393,2.613-4.256,3.392
					c-1.865,0.778-4.107,1.168-6.728,1.168C380.867,423.213,379.344,423.056,377.854,422.741z"/>
				<path style="&st2;" d="M398.237,399.562h11.41v5.256h-11.41V399.562z M402.067,421.427c-0.951-1.04-1.427-2.579-1.427-4.615
					v-24.033h6.154v22.506c0,0.569,0.112,1.007,0.337,1.314c0.225,0.307,0.554,0.46,0.988,0.46h1.527v5.93h-3.1
					C404.512,422.988,403.018,422.468,402.067,421.427z"/>
				<path style="&st2;" d="M415.769,421.427c-1.236-1.189-1.854-2.998-1.854-5.424c0-2.306,0.692-4.035,2.078-5.188
					c1.385-1.153,3.462-1.729,6.232-1.729h5.84l0.314,4.694h-6.132c-0.929,0-1.625,0.184-2.089,0.55
					c-0.464,0.367-0.696,0.925-0.696,1.674c0,0.764,0.292,1.329,0.876,1.695c0.584,0.367,1.468,0.551,2.65,0.551
					c1.647,0,2.871-0.188,3.672-0.562c0.802-0.374,1.202-0.958,1.202-1.752l0.472,3.392c-0.09,0.839-0.476,1.55-1.156,2.134
					c-0.682,0.584-1.535,1.022-2.561,1.313c-1.026,0.293-2.108,0.438-3.246,0.438C418.871,423.213,417.003,422.618,415.769,421.427z
					 M427.863,408.097c0-1.078-0.359-1.909-1.078-2.493s-1.737-0.876-3.055-0.876c-0.868,0-1.729,0.143-2.583,0.427
					s-1.609,0.682-2.269,1.19l-3.818-3.751c0.929-1.063,2.156-1.891,3.684-2.481c1.527-0.592,3.22-0.888,5.076-0.888
					c2.036,0,3.773,0.341,5.211,1.022c1.438,0.681,2.534,1.669,3.29,2.965c0.757,1.295,1.135,2.855,1.135,4.683v14.981h-5.593
					V408.097z"/>
				<path style="&st2;" d="M439.521,399.562h6.604v23.314h-6.604V399.562z M451.537,405.379c-0.435-0.149-0.936-0.225-1.505-0.225
					c-1.243,0-2.205,0.4-2.887,1.202c-0.681,0.801-1.021,1.912-1.021,3.335l-0.472-6.064c0.644-1.393,1.479-2.475,2.505-3.245
					c1.025-0.771,2.152-1.157,3.38-1.157c0.974,0,1.853,0.153,2.64,0.46c0.785,0.308,1.471,0.761,2.055,1.359l-3.594,5.009
					C452.338,405.753,451.972,405.528,451.537,405.379z"/>
				<path style="&st2;" d="M464.003,422.843c-1.317-0.248-2.553-0.61-3.706-1.09s-2.171-1.056-3.055-1.729l3.796-4.739
					c1.123,0.719,2.299,1.272,3.526,1.662s2.396,0.584,3.504,0.584c1.438,0,2.553-0.161,3.347-0.482
					c0.794-0.322,1.19-0.768,1.19-1.337c0-0.524-0.172-0.921-0.517-1.19s-0.786-0.461-1.325-0.572
					c-0.539-0.113-1.295-0.214-2.269-0.304c-0.27-0.03-0.543-0.06-0.82-0.09c-0.276-0.03-0.558-0.06-0.842-0.09
					c-0.06-0.015-0.123-0.026-0.191-0.034c-0.066-0.007-0.131-0.011-0.19-0.011c-1.737-0.225-3.13-0.502-4.178-0.831
					s-1.936-0.962-2.661-1.898c-0.727-0.936-1.09-2.294-1.09-4.076c0-1.558,0.374-2.89,1.123-3.998s1.834-1.95,3.257-2.527
					c1.423-0.576,3.145-0.864,5.166-0.864c1.183,0,2.362,0.12,3.538,0.359c1.175,0.239,2.302,0.584,3.38,1.033
					s2.074,0.988,2.987,1.617l-3.661,4.47c-1.019-0.569-2.081-1.011-3.189-1.325s-2.171-0.472-3.189-0.472
					c-1.243,0-2.209,0.143-2.897,0.427s-1.033,0.682-1.033,1.19c0,0.39,0.184,0.692,0.551,0.91c0.366,0.217,0.823,0.374,1.369,0.471
					c0.547,0.098,1.345,0.206,2.393,0.326c0.135,0.015,0.27,0.03,0.404,0.045s0.27,0.03,0.404,0.045
					c0.06,0.015,0.127,0.022,0.202,0.022s0.143,0.008,0.202,0.022c1.812,0.21,3.287,0.479,4.425,0.809s2.107,0.988,2.909,1.977
					c0.801,0.988,1.201,2.44,1.201,4.357c0,1.617-0.39,3.002-1.168,4.155s-1.917,2.032-3.414,2.64
					c-1.497,0.605-3.302,0.909-5.413,0.909C466.676,423.213,465.32,423.089,464.003,422.843z"/>
			</g>
		</g>
	</g>
</g>
<g id="Layer_1">
	<g>
		<g>
			<g>
				<linearGradient id="SVGID_1_" gradientUnits="userSpaceOnUse" x1="99.1136" y1="265.9372" x2="238.5728" y2="265.9372">
					<stop  offset="0" style="stop-color:#8DC63F"/>
					<stop  offset="1" style="stop-color:#A4D165"/>
				</linearGradient>
				<path style="&st3;" d="M196.449,196.208h-55.212c-23.264,0-42.123,18.859-42.123,42.123v55.212
					c0,23.264,18.859,42.124,42.123,42.124h55.212c23.264,0,42.123-18.859,42.123-42.124v-55.212
					C238.573,215.067,219.713,196.208,196.449,196.208z M177.753,269.058h-19.638v-5.091h19.638V269.058z"/>
				<g>
					<path style="&st2;" d="M194.792,327.865h-51.897c-19.839,0-35.979-16.14-35.979-35.979v-51.897
						c0-19.839,16.14-35.979,35.979-35.979h51.897c19.839,0,35.979,16.14,35.979,35.979v51.897
						C230.771,311.725,214.631,327.865,194.792,327.865z M142.895,210.953c-16.01,0-29.035,13.025-29.035,29.035v51.897
						c0,16.01,13.025,29.035,29.035,29.035h51.897c16.01,0,29.035-13.025,29.035-29.035v-51.897
						c0-16.01-13.025-29.035-29.035-29.035H142.895z"/>
				</g>
				<path style="&st2;" d="M208.873,257.832h-45.71v-9.624c0-2.927-3.169-4.757-5.704-3.293l-30.709,17.73
					c-2.535,1.464-2.535,5.123,0,6.586l30.709,17.73c2.535,1.464,5.704-0.366,5.704-3.293v-9.624h45.71
					c2.189,0,3.964-1.775,3.964-3.964v-8.283C212.837,259.607,211.062,257.832,208.873,257.832z"/>
			</g>
			<g>
				
					<linearGradient id="SVGID_2_" gradientUnits="userSpaceOnUse" x1="269.1363" y1="245.8666" x2="408.5956" y2="245.8666" gradientTransform="matrix(-1 0 0 -1 770.0228 511.8038)">
					<stop  offset="0" style="stop-color:#8DC63F"/>
					<stop  offset="1" style="stop-color:#A4D165"/>
				</linearGradient>
				<path style="&st4;" d="M403.551,335.667h55.212c23.264,0,42.124-18.859,42.124-42.124v-55.212
					c0-23.264-18.859-42.123-42.124-42.123h-55.212c-23.264,0-42.123,18.859-42.123,42.123v55.212
					C361.427,316.807,380.287,335.667,403.551,335.667z M422.247,262.816h19.638v5.091h-19.638V262.816z"/>
				<g>
					<path style="&st2;" d="M405.208,204.009h51.897c19.839,0,35.979,16.14,35.979,35.979v51.897
						c0,19.839-16.14,35.979-35.979,35.979h-51.897c-19.839,0-35.979-16.14-35.979-35.979v-51.897
						C369.229,220.15,385.369,204.009,405.208,204.009z M457.105,320.921c16.01,0,29.035-13.025,29.035-29.035v-51.897
						c0-16.01-13.025-29.035-29.035-29.035h-51.897c-16.01,0-29.035,13.025-29.035,29.035v51.897
						c0,16.01,13.025,29.035,29.035,29.035H457.105z"/>
				</g>
				<path style="&st2;" d="M391.127,274.043h45.71v9.624c0,2.927,3.169,4.757,5.704,3.293l30.709-17.73
					c2.535-1.464,2.535-5.123,0-6.586l-30.709-17.73c-2.535-1.464-5.704,0.366-5.704,3.293v9.624h-45.71
					c-2.189,0-3.964,1.775-3.964,3.964v8.283C387.163,272.268,388.938,274.043,391.127,274.043z"/>
			</g>
		</g>
		<g>
			
				<linearGradient id="SVGID_3_" gradientUnits="userSpaceOnUse" x1="403.6522" y1="340.9133" x2="543.1115" y2="340.9133" gradientTransform="matrix(3.464102e-07 1 -1 3.464102e-07 640.9131 -326.397)">
				<stop  offset="0" style="stop-color:#8DC63F"/>
				<stop  offset="1" style="stop-color:#A4D165"/>
			</linearGradient>
			<path style="&st5;" d="M369.73,174.591v-55.212c0-23.264-18.859-42.123-42.124-42.123l-55.212,0
				c-23.264,0-42.123,18.859-42.123,42.123l0,55.212c0,23.264,18.859,42.123,42.124,42.123l55.212,0
				C350.87,216.715,369.73,197.855,369.73,174.591z M296.879,155.895v-19.638h5.091v19.638H296.879z"/>
			<g>
				<path style="&st2;" d="M238.072,172.934l0-51.897c0-19.839,16.14-35.979,35.979-35.979l51.897,0
					c19.839,0,35.979,16.14,35.979,35.979v51.897c0,19.839-16.14,35.979-35.979,35.979l-51.897,0
					C254.212,208.913,238.072,192.772,238.072,172.934z M354.984,121.036c0-16.01-13.025-29.035-29.035-29.035l-51.897,0
					c-16.01,0-29.035,13.025-29.035,29.035l0,51.897c0,16.01,13.025,29.035,29.035,29.035l51.897,0
					c16.01,0,29.035-13.025,29.035-29.035V121.036z"/>
			</g>
			<path style="&st2;" d="M308.105,187.015l0-45.71l9.624,0c2.927,0,4.757-3.169,3.293-5.704l-17.73-30.709
				c-1.464-2.535-5.123-2.535-6.586,0l-17.73,30.709c-1.464,2.535,0.366,5.704,3.293,5.704h9.624v45.71
				c0,2.189,1.775,3.964,3.964,3.964h8.283C306.331,190.979,308.105,189.204,308.105,187.015z"/>
		</g>
	</g>
	<g>
		<g>
			<path style="&st2;" d="M159.12,468.454h4.678v24.824h-4.678V468.454z M161.254,479.142h7.939c0.557,0,1.05-0.128,1.477-0.384
				c0.427-0.257,0.76-0.617,0.999-1.085c0.239-0.466,0.358-1.001,0.358-1.604c0-0.614-0.117-1.158-0.35-1.631
				c-0.233-0.472-0.563-0.836-0.99-1.092c-0.427-0.257-0.925-0.385-1.494-0.385h-7.939v-4.507h7.82c1.548,0,2.911,0.315,4.089,0.947
				c1.178,0.632,2.092,1.522,2.74,2.672c0.649,1.149,0.973,2.481,0.973,3.995s-0.324,2.843-0.973,3.986
				c-0.648,1.145-1.562,2.029-2.74,2.655c-1.178,0.626-2.541,0.939-4.089,0.939h-7.82V479.142z"/>
			<path style="&st2;" d="M179.693,475.557h5.02v17.722h-5.02V475.557z M188.827,479.979c-0.33-0.114-0.711-0.171-1.144-0.171
				c-0.945,0-1.676,0.305-2.194,0.913c-0.518,0.609-0.777,1.454-0.777,2.535l-0.358-4.609c0.489-1.059,1.124-1.881,1.904-2.467
				c0.779-0.586,1.636-0.88,2.569-0.88c0.74,0,1.409,0.117,2.006,0.351c0.597,0.233,1.118,0.577,1.562,1.032l-2.732,3.808
				C189.436,480.263,189.157,480.092,188.827,479.979z"/>
			<path style="&st2;" d="M197.492,492.604c-1.212-0.62-2.137-1.524-2.774-2.714c-0.637-1.189-0.956-2.621-0.956-4.294v-1.998
				c0-1.753,0.305-3.249,0.914-4.49c0.609-1.24,1.497-2.186,2.664-2.834c1.167-0.648,2.575-0.974,4.226-0.974
				c1.548,0,2.874,0.388,3.978,1.161c1.104,0.774,1.943,1.898,2.518,3.372c0.575,1.475,0.862,3.253,0.862,5.336v1.16h-12.122v-3.158
				h7.854l-0.051-0.41c-0.125-1.024-0.447-1.815-0.965-2.373s-1.209-0.836-2.074-0.836c-1.127,0-2,0.336-2.621,1.007
				c-0.62,0.672-0.93,1.622-0.93,2.852v2.254c0,1.206,0.338,2.14,1.016,2.8s1.625,0.99,2.843,0.99c0.626,0,1.247-0.111,1.861-0.333
				c0.615-0.222,1.172-0.538,1.673-0.947l3.056,2.714c-0.922,0.843-1.958,1.494-3.107,1.955s-2.311,0.691-3.483,0.691
				C200.165,493.534,198.705,493.225,197.492,492.604z"/>
			<path style="&st2;" d="M216.708,493.253c-1.002-0.188-1.941-0.464-2.817-0.828c-0.877-0.364-1.651-0.803-2.322-1.314l2.885-3.603
				c0.854,0.546,1.747,0.968,2.681,1.263c0.933,0.297,1.821,0.444,2.664,0.444c1.093,0,1.94-0.122,2.544-0.367
				c0.603-0.244,0.905-0.583,0.905-1.016c0-0.398-0.131-0.7-0.393-0.905c-0.262-0.204-0.598-0.35-1.007-0.436
				c-0.41-0.085-0.985-0.162-1.725-0.23c-0.205-0.022-0.413-0.045-0.623-0.067c-0.211-0.023-0.424-0.046-0.64-0.068
				c-0.046-0.012-0.094-0.021-0.146-0.026c-0.051-0.005-0.1-0.008-0.145-0.008c-1.32-0.171-2.379-0.382-3.175-0.632
				c-0.797-0.25-1.472-0.731-2.023-1.443c-0.552-0.711-0.828-1.744-0.828-3.099c0-1.184,0.285-2.196,0.854-3.039
				c0.569-0.842,1.394-1.482,2.476-1.921c1.081-0.438,2.39-0.657,3.927-0.657c0.899,0,1.795,0.092,2.689,0.273
				c0.894,0.183,1.75,0.444,2.569,0.785c0.82,0.342,1.577,0.752,2.271,1.229l-2.783,3.397c-0.774-0.433-1.582-0.769-2.424-1.007
				c-0.842-0.239-1.65-0.358-2.424-0.358c-0.945,0-1.679,0.107-2.203,0.324c-0.523,0.216-0.785,0.518-0.785,0.904
				c0,0.297,0.139,0.527,0.418,0.691c0.279,0.165,0.625,0.285,1.042,0.359c0.415,0.073,1.021,0.156,1.818,0.247
				c0.103,0.012,0.205,0.023,0.308,0.034c0.103,0.012,0.205,0.023,0.307,0.034c0.045,0.012,0.097,0.017,0.154,0.017
				c0.057,0,0.108,0.006,0.154,0.018c1.377,0.159,2.498,0.364,3.363,0.614c0.865,0.251,1.602,0.752,2.211,1.503
				s0.914,1.855,0.914,3.312c0,1.229-0.296,2.282-0.888,3.158c-0.592,0.877-1.457,1.545-2.595,2.006
				c-1.139,0.461-2.51,0.691-4.115,0.691C218.74,493.534,217.709,493.44,216.708,493.253z"/>
			<path style="&st2;" d="M234.84,493.253c-1.002-0.188-1.941-0.464-2.817-0.828c-0.877-0.364-1.651-0.803-2.322-1.314l2.885-3.603
				c0.854,0.546,1.747,0.968,2.681,1.263c0.933,0.297,1.821,0.444,2.664,0.444c1.093,0,1.94-0.122,2.544-0.367
				c0.603-0.244,0.905-0.583,0.905-1.016c0-0.398-0.131-0.7-0.393-0.905c-0.262-0.204-0.598-0.35-1.007-0.436
				c-0.41-0.085-0.985-0.162-1.725-0.23c-0.205-0.022-0.413-0.045-0.623-0.067c-0.211-0.023-0.424-0.046-0.64-0.068
				c-0.046-0.012-0.094-0.021-0.146-0.026c-0.051-0.005-0.1-0.008-0.145-0.008c-1.32-0.171-2.379-0.382-3.175-0.632
				c-0.797-0.25-1.472-0.731-2.023-1.443c-0.552-0.711-0.828-1.744-0.828-3.099c0-1.184,0.285-2.196,0.854-3.039
				c0.569-0.842,1.394-1.482,2.476-1.921c1.081-0.438,2.39-0.657,3.927-0.657c0.899,0,1.795,0.092,2.689,0.273
				c0.894,0.183,1.75,0.444,2.569,0.785c0.82,0.342,1.577,0.752,2.271,1.229l-2.783,3.397c-0.774-0.433-1.582-0.769-2.424-1.007
				c-0.842-0.239-1.65-0.358-2.424-0.358c-0.945,0-1.679,0.107-2.203,0.324c-0.523,0.216-0.785,0.518-0.785,0.904
				c0,0.297,0.139,0.527,0.418,0.691c0.279,0.165,0.625,0.285,1.042,0.359c0.415,0.073,1.021,0.156,1.818,0.247
				c0.103,0.012,0.205,0.023,0.308,0.034c0.103,0.012,0.205,0.023,0.307,0.034c0.045,0.012,0.097,0.017,0.154,0.017
				c0.057,0,0.108,0.006,0.154,0.018c1.377,0.159,2.498,0.364,3.363,0.614c0.865,0.251,1.602,0.752,2.211,1.503
				s0.914,1.855,0.914,3.312c0,1.229-0.296,2.282-0.888,3.158c-0.592,0.877-1.457,1.545-2.595,2.006
				c-1.139,0.461-2.51,0.691-4.115,0.691C236.872,493.534,235.841,493.44,234.84,493.253z"/>
		</g>
	</g>
	<g>
		<g>
			<path style="&st2;" d="M326.916,475.557h8.673v3.995h-8.673V475.557z M329.827,492.177c-0.723-0.791-1.084-1.96-1.084-3.508
				V470.4h4.678v17.107c0,0.433,0.085,0.766,0.256,0.998c0.171,0.234,0.421,0.351,0.752,0.351h1.16v4.507h-2.355
				C331.685,493.363,330.55,492.969,329.827,492.177z"/>
			<path style="&st2;" d="M342.684,492.63c-1.144-0.604-2.015-1.482-2.612-2.638s-0.896-2.547-0.896-4.175v-2.886
				c0-1.604,0.299-2.979,0.896-4.123s1.469-2.015,2.612-2.612s2.523-0.896,4.141-0.896c1.615,0,2.996,0.299,4.14,0.896
				c1.145,0.598,2.015,1.469,2.612,2.612s0.896,2.519,0.896,4.123v2.937c0,1.617-0.299,2.997-0.896,4.141s-1.468,2.018-2.612,2.621
				c-1.144,0.604-2.524,0.904-4.14,0.904C345.207,493.534,343.827,493.233,342.684,492.63z M349.009,488.199
				c0.523-0.552,0.786-1.329,0.786-2.331v-2.937c0-0.99-0.263-1.758-0.786-2.305c-0.523-0.546-1.258-0.819-2.202-0.819
				c-0.934,0-1.659,0.273-2.177,0.819c-0.519,0.547-0.777,1.314-0.777,2.305v2.937c0,1.002,0.257,1.779,0.769,2.331
				c0.513,0.552,1.24,0.828,2.186,0.828C347.751,489.027,348.485,488.751,349.009,488.199z"/>
			<path style="&st2;" d="M372.8,493.176c-1.133-0.239-2.196-0.589-3.192-1.05s-1.887-1.016-2.672-1.665l2.168-3.858
				c0.956,0.785,2.061,1.392,3.312,1.818s2.538,0.641,3.858,0.641c1.525,0,2.709-0.259,3.552-0.777
				c0.842-0.518,1.263-1.249,1.263-2.193v-0.018c0-0.66-0.188-1.184-0.563-1.57c-0.375-0.387-0.865-0.672-1.468-0.854
				c-0.604-0.183-1.378-0.348-2.322-0.495c-0.034-0.012-0.065-0.018-0.094-0.018s-0.06-0.006-0.094-0.017l-0.376-0.052
				c-1.662-0.262-3.039-0.589-4.132-0.981s-2.021-1.081-2.782-2.066c-0.763-0.984-1.145-2.381-1.145-4.191v-0.017
				c0-1.605,0.358-2.977,1.076-4.115c0.717-1.138,1.758-2.006,3.124-2.604s3.016-0.896,4.951-0.896c0.888,0,1.796,0.103,2.724,0.308
				c0.927,0.205,1.835,0.501,2.723,0.888c0.888,0.388,1.73,0.854,2.527,1.4l-1.98,3.961c-0.956-0.66-1.955-1.172-2.997-1.537
				c-1.041-0.363-2.04-0.546-2.996-0.546c-1.435,0-2.544,0.236-3.329,0.709c-0.785,0.472-1.178,1.135-1.178,1.988v0.018
				c0,0.717,0.204,1.283,0.614,1.698c0.41,0.416,0.916,0.721,1.52,0.914s1.451,0.398,2.544,0.614
				c0.045,0.012,0.091,0.021,0.137,0.025c0.045,0.006,0.091,0.015,0.137,0.026c0.068,0.011,0.133,0.025,0.196,0.042
				c0.062,0.018,0.128,0.031,0.196,0.043c1.57,0.308,2.882,0.681,3.936,1.118c1.053,0.438,1.932,1.144,2.638,2.117
				c0.705,0.973,1.059,2.302,1.059,3.986v0.034c0,1.582-0.37,2.937-1.11,4.063s-1.818,1.986-3.235,2.578s-3.121,0.888-5.113,0.888
				C375.091,493.534,373.933,493.415,372.8,493.176z"/>
			<path style="&st2;" d="M388.295,475.557h8.673v3.995h-8.673V475.557z M391.206,492.177c-0.723-0.791-1.084-1.96-1.084-3.508
				V470.4h4.678v17.107c0,0.433,0.085,0.766,0.256,0.998c0.171,0.234,0.421,0.351,0.752,0.351h1.16v4.507h-2.355
				C393.063,493.363,391.929,492.969,391.206,492.177z"/>
			<path style="&st2;" d="M401.62,492.177c-0.939-0.904-1.409-2.279-1.409-4.123c0-1.753,0.526-3.067,1.58-3.943
				c1.053-0.877,2.632-1.315,4.737-1.315h4.439l0.239,3.568h-4.661c-0.706,0-1.235,0.14-1.588,0.419
				c-0.354,0.278-0.529,0.703-0.529,1.271c0,0.581,0.222,1.011,0.666,1.289c0.443,0.279,1.115,0.418,2.015,0.418
				c1.252,0,2.182-0.142,2.791-0.427c0.608-0.284,0.913-0.728,0.913-1.331l0.359,2.578c-0.068,0.638-0.362,1.178-0.88,1.622
				c-0.518,0.443-1.167,0.776-1.946,0.998c-0.779,0.223-1.603,0.333-2.467,0.333C403.979,493.534,402.559,493.082,401.62,492.177z
				 M410.813,482.044c0-0.819-0.272-1.451-0.819-1.895c-0.546-0.444-1.32-0.666-2.321-0.666c-0.661,0-1.315,0.108-1.964,0.324
				s-1.224,0.518-1.725,0.904l-2.902-2.851c0.706-0.809,1.639-1.438,2.8-1.887s2.447-0.675,3.859-0.675
				c1.547,0,2.868,0.26,3.961,0.777c1.092,0.518,1.926,1.27,2.501,2.254c0.574,0.984,0.862,2.171,0.862,3.56v11.388h-4.252V482.044z
				"/>
			<path style="&st2;" d="M419.676,475.557h5.02v17.722h-5.02V475.557z M428.81,479.979c-0.33-0.114-0.711-0.171-1.144-0.171
				c-0.945,0-1.677,0.305-2.194,0.913c-0.518,0.609-0.776,1.454-0.776,2.535l-0.358-4.609c0.489-1.059,1.123-1.881,1.903-2.467
				c0.779-0.586,1.636-0.88,2.569-0.88c0.74,0,1.408,0.117,2.006,0.351s1.118,0.577,1.562,1.032l-2.731,3.808
				C429.418,480.263,429.14,480.092,428.81,479.979z"/>
			<path style="&st2;" d="M433.231,475.557h8.673v3.995h-8.673V475.557z M436.143,492.177c-0.723-0.791-1.084-1.96-1.084-3.508
				V470.4h4.678v17.107c0,0.433,0.085,0.766,0.256,0.998c0.171,0.234,0.421,0.351,0.752,0.351h1.16v4.507h-2.355
				C438,493.363,436.865,492.969,436.143,492.177z"/>
		</g>
	</g>
	<g>
		
			<linearGradient id="SVGID_4_" gradientUnits="userSpaceOnUse" x1="783.2615" y1="356.3304" x2="835.6522" y2="356.3304" gradientTransform="matrix(3.464102e-07 1 -1 3.464102e-07 640.9131 -326.397)">
			<stop  offset="0" style="stop-color:#8DC63F"/>
			<stop  offset="1" style="stop-color:#A4D165"/>
		</linearGradient>
		<path style="&st6;" d="M310.778,493.431v-20.742c0-8.74-7.085-15.825-15.825-15.825l-20.742,0c-8.74,0-15.825,7.085-15.825,15.825
			l0,20.742c0,8.74,7.085,15.825,15.825,15.825h20.742C303.693,509.255,310.778,502.17,310.778,493.431z M283.411,486.407l0-7.378
			h1.913v7.378H283.411z"/>
		<g>
			<path style="&st2;" d="M261.319,492.808v-19.496c0-7.453,6.063-13.516,13.516-13.516h19.496c7.453,0,13.516,6.063,13.516,13.516
				l0,19.496c0,7.453-6.063,13.516-13.516,13.516l-19.496,0C267.382,506.324,261.319,500.261,261.319,492.808z M305.239,473.312
				c0-6.015-4.893-10.908-10.908-10.908h-19.496c-6.015,0-10.908,4.893-10.908,10.908v19.496c0,6.015,4.893,10.908,10.908,10.908
				h19.496c6.015,0,10.908-4.893,10.908-10.908V473.312z"/>
		</g>
		<path style="&st2;" d="M287.628,498.098v-17.172h3.616c1.1,0,1.787-1.19,1.237-2.143l-6.661-11.536
			c-0.55-0.952-1.924-0.952-2.474,0l-6.661,11.536c-0.55,0.952,0.137,2.143,1.237,2.143h3.616v17.172
			c0,0.822,0.667,1.489,1.489,1.489h3.112C286.961,499.587,287.628,498.92,287.628,498.098z"/>
	</g>
</g>
</svg>
