<?xml version="1.0" encoding="utf-8"?>
<!-- Generator: Adobe Illustrator 25.0.0, SVG Export Plug-In . SVG Version: 6.00 Build 0)  -->
<!DOCTYPE svg PUBLIC "-//W3C//DTD SVG 1.1//EN" "http://www.w3.org/Graphics/SVG/1.1/DTD/svg11.dtd" [
	<!ENTITY st0 "fill:#66AB18;">
	<!ENTITY st1 "fill:#DA68A4;">
	<!ENTITY st2 "fill:#72D0ED;">
	<!ENTITY st3 "fill:#FDE036;">
]>
<svg version="1.1" id="Layer_1" xmlns="http://www.w3.org/2000/svg" xmlns:xlink="http://www.w3.org/1999/xlink" x="0px" y="0px"
	 viewBox="0 0 80 70" style="enable-background:new 0 0 80 70;" xml:space="preserve">
<g>
	<g>
		<g>
			<path style="&st0;" d="M64.259,51.944c-3.414,7.295-3.2,14.568,0.475,16.246c3.677,1.678,9.425-2.876,12.839-10.171
				c3.414-7.295,3.2-14.568-0.477-16.246C73.419,40.096,67.672,44.65,64.259,51.944z"/>
			<g>
				<rect x="58.687" y="26.775" style="&st0;" width="4.01" height="43.225"/>
			</g>
		</g>
		<path style="&st1;" d="M74.557,5.035c0.003-0.071,0.011-0.14,0.011-0.211C74.568,2.16,72.495,0,69.939,0
			c-2.557,0-4.63,2.16-4.63,4.824c0,0.071,0.008,0.141,0.011,0.211h-0.021c0.003-0.071,0.011-0.14,0.011-0.211
			C65.309,2.16,63.236,0,60.679,0s-4.63,2.16-4.63,4.824c0,0.071,0.008,0.141,0.011,0.211h-0.021
			c0.003-0.071,0.011-0.14,0.011-0.211C56.048,2.16,53.975,0,51.42,0c-2.559,0-4.632,2.16-4.632,4.824
			c0,0.071,0.008,0.141,0.011,0.211h-0.036c0.204,13.037,6.354,23.498,13.917,23.498c7.561,0,13.712-10.461,13.917-23.498H74.557z"
			/>
	</g>
	<g>
		<g>
			<path style="&st0;" d="M15.741,51.944c3.414,7.295,3.2,14.568-0.477,16.246c-3.675,1.678-9.424-2.876-12.838-10.171
				c-3.414-7.295-3.2-14.568,0.477-16.246C6.579,40.096,12.328,44.65,15.741,51.944z"/>
			<path style="&st0;" d="M22.106,51.944c-3.414,7.295-3.2,14.568,0.477,16.246s9.424-2.876,12.839-10.171
				c3.412-7.295,3.2-14.568-0.478-16.246C31.268,40.096,25.519,44.65,22.106,51.944z"/>
		</g>
		<g>
			<rect x="16.919" y="31.957" style="&st0;" width="4.01" height="38.043"/>
			<g>
				<g>
					<path style="&st2;" d="M15.316,28.545c0,3.608-2.963,6.532-6.616,6.532c-3.654,0-6.615-2.924-6.615-6.532
						c0-3.608,2.961-6.532,6.615-6.532C12.353,22.013,15.316,24.937,15.316,28.545z"/>
					<path style="&st2;" d="M19.063,31.972c3.653,0,6.616,2.925,6.614,6.532c0.002,3.608-2.961,6.532-6.614,6.532
						c-3.654,0-6.616-2.924-6.616-6.532C12.447,34.897,15.408,31.972,19.063,31.972z"/>
					<path style="&st2;" d="M22.532,28.273c0-3.608,2.963-6.532,6.616-6.532c3.654-0.001,6.616,2.924,6.616,6.531
						c0,3.608-2.961,6.532-6.616,6.532C25.495,34.805,22.532,31.881,22.532,28.273z"/>
					<path style="&st2;" d="M18.787,24.845c-3.654,0-6.616-2.924-6.616-6.533c-0.001-3.607,2.961-6.531,6.614-6.531
						c3.654,0,6.616,2.924,6.616,6.532C25.401,21.921,22.44,24.845,18.787,24.845z"/>
				</g>
				<path style="&st3;" d="M18.923,34.941c-3.654,0-6.614-2.924-6.614-6.533c-0.001-3.606,2.96-6.531,6.614-6.531
					c3.653-0.001,6.616,2.924,6.616,6.532S22.576,34.941,18.923,34.941z"/>
			</g>
		</g>
	</g>
</g>
</svg>
