<?xml version="1.0" encoding="utf-8"?>
<!-- Generator: Adobe Illustrator 25.0.0, SVG Export Plug-In . SVG Version: 6.00 Build 0)  -->
<!DOCTYPE svg PUBLIC "-//W3C//DTD SVG 1.1//EN" "http://www.w3.org/Graphics/SVG/1.1/DTD/svg11.dtd" [
	<!ENTITY st0 "fill:#66AB18;">
	<!ENTITY st1 "fill:#DA68A4;">
	<!ENTITY st2 "fill:#FDE036;">
]>
<svg version="1.1" id="Layer_1" xmlns="http://www.w3.org/2000/svg" xmlns:xlink="http://www.w3.org/1999/xlink" x="0px" y="0px"
	 viewBox="0 0 40 70" style="enable-background:new 0 0 40 70;" xml:space="preserve">
<path style="&st0;" d="M17.39,52.41c3.78,7.11,3.54,14.19-0.53,15.83S6.43,65.43,2.65,58.33S-0.89,44.14,3.18,42.5
	S13.64,45.31,17.39,52.41z"/>
<rect x="19.15" y="27.9" style="&st0;" width="4.44" height="42.1"/>
<path style="&st1;" d="M17.39,16.33c0,3.51-3.28,6.36-7.32,6.36s-7.32-2.85-7.32-6.36s3.28-6.37,7.32-6.37S17.39,12.81,17.39,16.33z
	"/>
<path style="&st1;" d="M21.52,19.67c4,0,7.32,2.84,7.32,6.36s-3.28,6.36-7.32,6.36s-7.32-2.85-7.32-6.36S17.47,19.67,21.52,19.67z"
	/>
<path style="&st1;" d="M25.39,16.06c0-3.51,3.28-6.36,7.32-6.36s7.32,2.85,7.32,6.36s-3.28,6.36-7.32,6.36S25.39,19.58,25.39,16.06z
	"/>
<path style="&st1;" d="M21.21,12.72c-4,0-7.32-2.85-7.32-6.36S17.17,0,21.21,0s7.32,2.85,7.32,6.36S25.26,12.72,21.21,12.72z"/>
<path style="&st2;" d="M21.39,22.56c-4.05,0-7.32-2.85-7.32-6.37s3.27-6.36,7.31-6.36s7.33,2.85,7.33,6.36S25.39,22.56,21.39,22.56z
	"/>
</svg>
