<svg id="Layer_1" data-name="Layer 1" xmlns="http://www.w3.org/2000/svg" viewBox="0 0 223.85 39.54"><path d="M702,464.32V437.74a7,7,0,1,0-14,0v26.58Z" transform="translate(-688.05 -424.78)" style="fill:#7dc42e"/><path d="M729,464.32V437.74a7,7,0,1,0-14,0v26.58Z" transform="translate(-688.05 -424.78)" style="fill:#7dc42e"/><path d="M752,464.32V437.74a7,7,0,1,0-14,0v26.58Z" transform="translate(-688.05 -424.78)" style="fill:#7dc42e"/><path d="M715.84,464.32V449.93a7,7,0,1,0-14,0v14.39Z" transform="translate(-688.05 -424.78)" style="fill:#66ab18"/><path d="M802.14,464.32V437.74a7,7,0,1,0-14,0v26.58Z" transform="translate(-688.05 -424.78)" style="fill:#7dc42e"/><path d="M830.2,464.32V437.74a7,7,0,1,0-14,0v26.58Z" transform="translate(-688.05 -424.78)" style="fill:#7dc42e"/><path d="M816,464.32V449.93a7,7,0,1,0-14,0v14.39Z" transform="translate(-688.05 -424.78)" style="fill:#66ab18"/><path d="M856.14,464.32V449.93a7,7,0,1,0-14,0v14.39Z" transform="translate(-688.05 -424.78)" style="fill:#66ab18"/><path d="M766,464.32V440a7,7,0,1,0-14,0v24.37Z" transform="translate(-688.05 -424.78)" style="fill:#66ab18"/><path d="M780,464.32V432.19a7,7,0,1,0-14,0v32.13Z" transform="translate(-688.05 -424.78)" style="fill:#7dc42e"/><path d="M884,464.32V437.74a7,7,0,1,0-14,0v26.58Z" transform="translate(-688.05 -424.78)" style="fill:#7dc42e"/><path d="M897.94,464.32V440a7,7,0,1,0-14,0v24.37Z" transform="translate(-688.05 -424.78)" style="fill:#66ab18"/><path d="M911.9,464.32V432.19a7,7,0,1,0-14,0v32.13Z" transform="translate(-688.05 -424.78)" style="fill:#7dc42e"/></svg>