<?xml version="1.0" encoding="utf-8"?>
<!-- Generator: Adobe Illustrator 25.0.0, SVG Export Plug-In . SVG Version: 6.00 Build 0)  -->
<!DOCTYPE svg PUBLIC "-//W3C//DTD SVG 1.1//EN" "http://www.w3.org/Graphics/SVG/1.1/DTD/svg11.dtd" [
	<!ENTITY st0 "fill:#7B4D29;">
	<!ENTITY st1 "opacity:0.6;fill:#56331B;">
	<!ENTITY st2 "fill:#66AB18;">
	<!ENTITY st3 "fill:#7DC42E;">
	<!ENTITY st4 "fill:#A3E64D;">
]>
<svg version="1.1" id="Layer_1" xmlns="http://www.w3.org/2000/svg" xmlns:xlink="http://www.w3.org/1999/xlink" x="0px" y="0px"
	 viewBox="0 0 170 360" style="enable-background:new 0 0 170 360;" xml:space="preserve">
<g>
	<g>
		<path style="&st0;" d="M104.423,360V49.914c0-9.32-6.766-16.875-15.115-16.875h-8.616c-8.349,0-15.115,7.555-15.115,16.875V360
			H104.423z"/>
		<path style="&st1;" d="M104.423,76.695V47.07c0-7.749-6.766-14.031-15.115-14.031h-8.616c-8.349,0-15.115,6.281-15.115,14.031
			v29.625H104.423z"/>
		<rect x="65.577" y="115.317" style="&st1;" width="38.846" height="58.949"/>
		<rect x="65.577" y="231.183" style="&st1;" width="38.846" height="65.047"/>
	</g>
	<g>
		<path style="&st2;" d="M170,259.208c0,12.865-10.286,23.296-22.973,23.296H22.973C10.284,282.503,0,272.073,0,259.208v-51.249
			c0-12.864,10.284-23.294,22.973-23.294h124.054c12.687,0,22.973,10.43,22.973,23.294V259.208z"/>
		<path style="&st3;" d="M147.027,184.665H22.973C10.284,184.665,0,195.095,0,207.959v24.848c0,12.865,10.284,23.296,22.973,23.296
			h124.054c12.687,0,22.973-10.43,22.973-23.296v-24.848C170,195.095,159.714,184.665,147.027,184.665z"/>
		<path style="&st4;" d="M36.564,220.384c0,2.574-2.056,4.66-4.593,4.66H15.506c-2.537,0-4.594-2.086-4.594-4.66l0,0
			c0-2.572,2.057-4.659,4.594-4.659h16.465C34.509,215.725,36.564,217.812,36.564,220.384L36.564,220.384z"/>
		<path style="&st4;" d="M57.24,242.125c0,2.573-2.057,4.659-4.596,4.659H36.182c-2.537,0-4.594-2.086-4.594-4.659l0,0
			c0-2.571,2.057-4.66,4.594-4.66h16.463C55.183,237.466,57.24,239.554,57.24,242.125L57.24,242.125z"/>
		<path style="&st2;" d="M120.128,225.044c0,2.573-2.058,4.659-4.594,4.659H99.072c-2.54,0-4.596-2.086-4.596-4.659l0,0
			c0-2.573,2.056-4.66,4.596-4.66h16.463C118.07,220.384,120.128,222.471,120.128,225.044L120.128,225.044z"/>
		<path style="&st2;" d="M157.077,229.702c0,2.573-1.305,4.659-2.916,4.659h-10.443c-1.609,0-2.914-2.086-2.914-4.659l0,0
			c0-2.573,1.306-4.659,2.914-4.659h10.443C155.771,225.044,157.077,227.129,157.077,229.702L157.077,229.702z"/>
		<path style="&st4;" d="M63.174,207.959c0,2.574-1.503,4.66-3.36,4.66h-12.04c-1.857,0-3.36-2.086-3.36-4.66l0,0
			c0-2.572,1.503-4.659,3.36-4.659h12.04C61.671,203.3,63.174,205.387,63.174,207.959L63.174,207.959z"/>
	</g>
	<g>
		<path style="&st2;" d="M156.025,139.995c0,12.865-10.286,23.295-22.974,23.295H36.948c-12.687,0-22.973-10.43-22.973-23.295
			v-30.283c0-12.865,10.286-23.294,22.973-23.294h96.102c12.689,0,22.974,10.43,22.974,23.294V139.995z"/>
		<path style="&st3;" d="M133.05,86.418H36.948c-12.687,0-22.973,10.43-22.973,23.294v3.882c0,12.865,10.286,23.295,22.973,23.295
			h96.102c12.689,0,22.974-10.43,22.974-23.295v-3.882C156.025,96.847,145.739,86.418,133.05,86.418z"/>
		<path style="&st4;" d="M56.044,112.041c0,2.573-2.058,4.66-4.596,4.66H34.986c-2.537,0-4.594-2.087-4.594-4.66l0,0
			c0-2.573,2.057-4.659,4.594-4.659h16.463C53.986,107.383,56.044,109.469,56.044,112.041L56.044,112.041z"/>
		<path style="&st2;" d="M139.608,116.701c0,2.573-2.058,4.658-4.594,4.658H118.55c-2.537,0-4.594-2.085-4.594-4.658l0,0
			c0-2.574,2.057-4.66,4.594-4.66h16.464C137.55,112.041,139.608,114.128,139.608,116.701L139.608,116.701z"/>
		<path style="&st4;" d="M82.655,99.617c0,2.573-1.506,4.66-3.363,4.66h-12.04c-1.855,0-3.36-2.087-3.36-4.66l0,0
			c0-2.572,1.505-4.659,3.36-4.659h12.04C81.149,94.959,82.655,97.045,82.655,99.617L82.655,99.617z"/>
	</g>
	<g>
		<path style="&st2;" d="M138.605,41.155c0,12.865-10.286,23.294-22.973,23.294H54.371c-12.688,0-22.974-10.429-22.974-23.294
			v-17.86C31.397,10.43,41.682,0,54.371,0h61.261c12.687,0,22.973,10.43,22.973,23.295V41.155z"/>
		<path style="&st3;" d="M54.371,0C41.94,0,31.821,10.013,31.418,22.518c0.403,12.505,10.522,22.518,22.953,22.518h61.261
			c12.43,0,22.548-10.013,22.953-22.518C138.18,10.013,128.062,0,115.632,0H54.371z"/>
		<path style="&st4;" d="M91.7,26.013c0,2.573-2.056,4.659-4.594,4.659H70.642c-2.537,0-4.594-2.086-4.594-4.659l0,0
			c0-2.574,2.057-4.659,4.594-4.659h16.464C89.644,21.353,91.7,23.439,91.7,26.013L91.7,26.013z"/>
		<path style="&st4;" d="M71.408,11.648c0,2.572-1.503,4.659-3.36,4.659h-12.04c-1.857,0-3.362-2.087-3.362-4.659l0,0
			c0-2.573,1.506-4.659,3.362-4.659h12.04C69.905,6.989,71.408,9.074,71.408,11.648L71.408,11.648z"/>
	</g>
</g>
</svg>
